
<svg xmlns="http://www.w3.org/2000/svg" viewBox="0 0 55 55">
	<style type="text/css">
		.st0{fill-rule:evenodd;clip-rule:evenodd;fill:url(#foot_1_);filter:url(#dropshadow);}
		.st1{fill-rule:evenodd;clip-rule:evenodd;fill:url(#Oval-87_2_);}
		.st2{fill-rule:evenodd;clip-rule:evenodd;fill:url(#SVGID_1_);}
		.st3{opacity:0.3553;fill-rule:evenodd;clip-rule:evenodd;fill:url(#Leg-Reflection_1_);enable-background:new    ;}
		.st4{fill-rule:evenodd;clip-rule:evenodd;fill:url(#Table-Shadow_1_);}
		.st5{fill-rule:evenodd;clip-rule:evenodd;fill:url(#keynote-path-8_1_);}
		.st6{fill-rule:evenodd;clip-rule:evenodd;fill:url(#keynote-path-11_2_);}
		.st7{fill-rule:evenodd;clip-rule:evenodd;fill:url(#SVGID_2_);}
		.st8{fill-rule:evenodd;clip-rule:evenodd;fill:#FFFFFF;}
		.st9{fill-rule:evenodd;clip-rule:evenodd;}
		.st10{fill-rule:evenodd;clip-rule:evenodd;fill:#FFE146;}
		.st11{fill-rule:evenodd;clip-rule:evenodd;fill:#8EE463;}
		.st12{fill-rule:evenodd;clip-rule:evenodd;fill:#27B1F7;}
		.st13{fill-rule:evenodd;clip-rule:evenodd;fill:#E785F9;}
		.st14{fill-rule:evenodd;clip-rule:evenodd;fill:#FB5352;}
		.st15{fill:#ABABAB;}
		.st16{fill-rule:evenodd;clip-rule:evenodd;fill:#27B1F6;}
		.st17{fill-rule:evenodd;clip-rule:evenodd;fill:#E885F9;}
		.st18{fill-rule:evenodd;clip-rule:evenodd;fill:#FFE244;}
		.st19{fill-rule:evenodd;clip-rule:evenodd;fill:#8FE563;}
	</style>
	<filter filterUnits="objectBoundingBox" id="dropshadow">
		<feOffset dx="0" dy=".35" in="SourceAlpha" result="defappShadowOffsetOuter1"></feOffset>
		<feGaussianBlur stdDeviation=".35" in="defappShadowOffsetOuter1" result="defappShadowBlurOuter1"></feGaussianBlur>
		<feColorMatrix values="0 0 0 0 0   0 0 0 0 0   0 0 0 0 0  0 0 0 0.5 0" type="matrix" in="defappShadowBlurOuter1" result="defappShadowMatrixOuter1"></feColorMatrix>
		<feMerge>
			<feMergeNode in="defappShadowMatrixOuter1"/>
			<feMergeNode in="SourceGraphic"/>
		</feMerge>
	</filter>
	<linearGradient id="foot_1_" gradientUnits="userSpaceOnUse" x1="-537.7058" y1="6.3388" x2="-537.6046" y2="6.34" gradientTransform="matrix(196.5409 0 0 69.3235 105697.9609 -391.5126)">
		<stop  offset="0" style="stop-color:#837E7C"/>
		<stop  offset="0.044" style="stop-color:#A8AAB1"/>
		<stop  offset="0.0725" style="stop-color:#C3D0D9"/>
		<stop  offset="0.1123" style="stop-color:#DDE7ED"/>
		<stop  offset="0.3818" style="stop-color:#A2BACC"/>
		<stop  offset="0.3818" style="stop-color:#A2BACC"/>
		<stop  offset="0.3827" style="stop-color:#A2BACC"/>
		<stop  offset="0.6334" style="stop-color:#6B90AC"/>
		<stop  offset="0.7026" style="stop-color:#97B2C5"/>
		<stop  offset="0.7756" style="stop-color:#A4BCC7"/>
		<stop  offset="0.8212" style="stop-color:#97A2A7"/>
		<stop  offset="0.8652" style="stop-color:#999791"/>
		<stop  offset="0.9273" style="stop-color:#968F86"/>
		<stop  offset="0.9597" style="stop-color:#898075"/>
		<stop  offset="0.9597" style="stop-color:#898075"/>
		<stop  offset="1" style="stop-color:#786E61"/>
	</linearGradient>
	<linearGradient id="Oval-87_2_" gradientUnits="userSpaceOnUse" x1="-537.7076" y1="6.4256" x2="-537.597" y2="6.4256" gradientTransform="matrix(196.5409 0 0 69.3235 105698.4609 -397.8485)">
		<stop  offset="0" style="stop-color:#88BFEA"/>
		<stop  offset="0.3634" style="stop-color:#FEFFFF"/>
		<stop  offset="0.5576" style="stop-color:#FFFFFF"/>
		<stop  offset="0.63" style="stop-color:#FFFFFF"/>
		<stop  offset="0.633" style="stop-color:#FFFFFF"/>
		<stop  offset="1" style="stop-color:#76B2F0"/>
	</linearGradient>
	<linearGradient id="SVGID_1_" gradientUnits="userSpaceOnUse" x1="-527.65" y1="2.6477" x2="-527.5393" y2="2.6477" gradientTransform="matrix(30.5095 0 0 239.3817 16124.3145 -599.041)">
		<stop  offset="0" style="stop-color:#837E7C"/>
		<stop  offset="0.044" style="stop-color:#A8AAB1"/>
		<stop  offset="0.0725" style="stop-color:#C3D0D9"/>
		<stop  offset="0.1123" style="stop-color:#DDE7ED"/>
		<stop  offset="0.682" style="stop-color:#B6CCD6"/>
		<stop  offset="0.7026" style="stop-color:#97B2C5"/>
		<stop  offset="0.7756" style="stop-color:#A4BCC7"/>
		<stop  offset="0.8212" style="stop-color:#97A2A7"/>
		<stop  offset="0.8652" style="stop-color:#999791"/>
		<stop  offset="0.9273" style="stop-color:#968F86"/>
		<stop  offset="1" style="stop-color:#786E61"/>
	</linearGradient>
	<linearGradient id="Leg-Reflection_1_" gradientUnits="userSpaceOnUse" x1="-527.7369" y1="12.3807" x2="-527.6263" y2="12.3807" gradientTransform="matrix(30.7268 0 0 33.4804 16241.6572 -365.0948)">
		<stop  offset="0" style="stop-color:#837E7C"/>
		<stop  offset="0.044" style="stop-color:#A8AAB1"/>
		<stop  offset="0.0725" style="stop-color:#C3D0D9"/>
		<stop  offset="0.1123" style="stop-color:#DDE7ED"/>
		<stop  offset="0.682" style="stop-color:#B6CCD6"/>
		<stop  offset="0.7026" style="stop-color:#97B2C5"/>
		<stop  offset="0.7756" style="stop-color:#A4BCC7"/>
		<stop  offset="0.8212" style="stop-color:#97A2A7"/>
		<stop  offset="0.8652" style="stop-color:#999791"/>
		<stop  offset="0.9273" style="stop-color:#968F86"/>
		<stop  offset="1" style="stop-color:#786E61"/>
	</linearGradient>
	<linearGradient id="Table-Shadow_1_" gradientUnits="userSpaceOnUse" x1="-538.6004" y1="4.4341" x2="-538.6004" y2="4.4399" gradientTransform="matrix(405.3541 0 0 180.2412 218351.375 -776.4043)">
		<stop  offset="0" style="stop-color:#1D86CB"/>
		<stop  offset="1" style="stop-color:#094275"/>
	</linearGradient>
	<linearGradient id="keynote-path-8_1_" gradientUnits="userSpaceOnUse" x1="-538.5994" y1="4.3747" x2="-538.5994" y2="4.4854" gradientTransform="matrix(404.7358 0 0 180.2412 218017.9688 -785.6387)">
		<stop  offset="0" style="stop-color:#0299FB"/>
		<stop  offset="1" style="stop-color:#6EDAFE"/>
	</linearGradient>
	<radialGradient id="keynote-path-11_2_" cx="-423.5069" cy="-4.2958" r="0.166" gradientTransform="matrix(3.395916e-16 5.5459 -84.8603 5.196131e-15 -337.0261 2369.6516)" gradientUnits="userSpaceOnUse">
		<stop  offset="0" style="stop-color:#007AA8"/>
		<stop  offset="1" style="stop-color:#004C87"/>
	</radialGradient>
	<radialGradient id="SVGID_2_" cx="-422.6093" cy="-4.2953" r="0.1659" gradientTransform="matrix(3.395874e-16 5.5459 -84.8593 5.196131e-15 -336.9787 2364.0542)" gradientUnits="userSpaceOnUse">
		<stop  offset="0" style="stop-color:#A4E9FC"/>
		<stop  offset="1" style="stop-color:#5DDDFD"/>
	</radialGradient>
	
	<path id="foot" class="st0" d="M27.64,43.77c4.43,0,8.82,1.11,10.37,2.62c0.27,0.27,0.51,0.85,0.5,1.92
		c-0.01,2.12-4.87,3.84-10.87,3.84s-10.87-1.72-10.87-3.84c0-0.73,0.12-1.78,1.13-2.36C19.81,44.84,23.71,43.77,27.64,43.77z"/>
	<ellipse id="Oval-87_1_" class="st1" cx="27.7" cy="47.6" rx="10.87" ry="3.84"/>
	<path class="st2" d="M29.34,47.55c0.01,0,0.02,0,0.02,0V21.51H26v25.93c0,0.01-0.01,0.03-0.01,0.05s0,0.03,0.01,0.05v0.02
		c0,0,0,0,0.01,0c0.1,0.25,0.81,0.45,1.67,0.45C28.53,47.99,29.24,47.8,29.34,47.55z"/>
	<path id="Leg-Reflection" class="st3" d="M29.23,51.44l0.16-4.05c0,0-0.32,0.2-0.68,0.32c-0.35,0.12-0.74,0.13-1.03,0.13
		c-0.24,0-0.64-0.03-0.97-0.13c-0.4-0.12-0.72-0.32-0.72-0.32l0.2,4.05H29.23z"/>
	<g id="Table_1_" transform="translate(-0.000000, 0.000000)">
		<path id="Table-Shadow" class="st4" d="M27.5,3.88h18.02c0.56,0,1.1,0.44,1.21,1c0,0,2.11,11.15,3.13,16.75
			c0.03,0.17,0.08,0.5,0.07,0.71c-0.02,0.3-0.08,0.48-0.08,0.48c-0.12,0.56-0.69,1.01-1.25,1.01H27.5H6.41
			c-0.56,0-1.13-0.45-1.25-1.01c0,0-0.06-0.18-0.08-0.48c-0.01-0.21,0.04-0.54,0.07-0.71c1.02-5.6,3.13-16.75,3.13-16.75
			c0.11-0.56,0.65-1,1.21-1C9.49,3.88,27.5,3.88,27.5,3.88z"/>
		<path id="keynote-path-8" class="st5" d="M49.89,21.8c0.1,0.56-0.27,1.01-0.83,1.01H5.98c-0.56,0-0.94-0.45-0.83-1.01L8.5,3.87
			c0.1-0.56,0.65-1.01,1.21-1.01h35.62c0.56,0,1.11,0.45,1.21,1.01L49.89,21.8z"/>
		<polygon id="keynote-path-11_1_" class="st6" points="48.82,20.93 48.58,21.54 6.49,21.54 6.21,20.93 	"/>
		<path class="st7" d="M48.55,20.31l0.29,0.61H29.97H6.2l0.29-0.61H48.55z"/>
		<polygon id="keynote-path-14_1_" class="st8" points="40.46,5.68 42.21,18.87 12.85,18.87 14.6,5.68 	"/>
		<g id="Name" transform="translate(221.454545, 64.701974)">
			<path class="st9" d="M-189.6-50.34h0.22v-0.05h-0.49v0.05h0.22l0.01,0.53h0.06L-189.6-50.34z M-189.34-49.93
				c0-0.05,0.04-0.08,0.12-0.08l0.14-0.01v0.05c0,0.07-0.06,0.12-0.15,0.12C-189.29-49.85-189.34-49.88-189.34-49.93z M-189.07-49.89
				l0.01,0.08h0.06l-0.01-0.3c0-0.09-0.08-0.14-0.19-0.14c-0.1,0-0.18,0.05-0.18,0.13h0.06c0.01-0.05,0.06-0.08,0.12-0.08
				c0.08,0,0.12,0.04,0.13,0.1v0.04l-0.15,0.01c-0.12,0.01-0.18,0.05-0.18,0.12s0.07,0.13,0.17,0.13
				C-189.16-49.8-189.09-49.84-189.07-49.89z M-188.81-49.81l-0.01-0.25c0-0.08,0.05-0.14,0.13-0.14s0.13,0.04,0.14,0.12l0.02,0.27
				h0.06l-0.02-0.28c-0.01-0.1-0.08-0.16-0.18-0.16c-0.08,0-0.13,0.03-0.15,0.09l-0.01-0.08h-0.06l0.02,0.43H-188.81z M-188.34-50.24
				h-0.07v0.04h0.07l0.02,0.28c0.01,0.08,0.04,0.11,0.12,0.11c0.01,0,0.04,0,0.05,0v-0.05h-0.03c-0.05,0-0.07-0.02-0.07-0.06
				l-0.02-0.28h0.1v-0.04h-0.1l-0.01-0.1h-0.06V-50.24z M-188-49.93c0-0.05,0.04-0.08,0.12-0.08l0.14-0.01l0.01,0.05
				c0.01,0.07-0.05,0.12-0.14,0.12C-187.95-49.85-188-49.88-188-49.93z M-187.73-49.89l0.01,0.08h0.06l-0.03-0.3
				c-0.01-0.09-0.09-0.14-0.2-0.14c-0.1,0-0.17,0.05-0.17,0.13h0.06c0.01-0.05,0.05-0.08,0.12-0.08c0.08,0,0.13,0.04,0.13,0.1v0.04
				l-0.15,0.01c-0.12,0.01-0.17,0.05-0.17,0.12c0.01,0.07,0.08,0.13,0.18,0.13C-187.81-49.8-187.75-49.84-187.73-49.89z
				 M-187.25-50.24l0.03,0.25c0.01,0.08-0.04,0.14-0.13,0.14c-0.08,0-0.14-0.04-0.14-0.12l-0.03-0.27h-0.06l0.03,0.28
				c0.01,0.1,0.09,0.16,0.19,0.16c0.08,0,0.13-0.03,0.15-0.09l0.01,0.08h0.06l-0.06-0.43H-187.25z M-186.24-49.81l-0.34-0.58h-0.06
				l-0.15,0.58h0.07l0.04-0.18h0.27l0.1,0.18H-186.24z M-186.44-50.03h-0.24l0.07-0.29L-186.44-50.03z M-185.95-50.24l-0.08,0.38
				l-0.22-0.38h-0.06l0.26,0.43h0.06l0.1-0.43H-185.95z M-185.43-50.05h-0.3c-0.01-0.09,0.04-0.14,0.12-0.14
				C-185.52-50.2-185.45-50.14-185.43-50.05z M-185.52-49.85c-0.1,0-0.17-0.06-0.19-0.16l0,0h0.37l-0.01-0.02
				c-0.03-0.13-0.13-0.21-0.26-0.21c-0.13,0-0.2,0.09-0.17,0.22c0.03,0.14,0.13,0.22,0.27,0.22c0.11,0,0.18-0.05,0.17-0.13h-0.06
				C-185.4-49.88-185.45-49.85-185.52-49.85z"/>
			<path class="st9" d="M-189.37-48.86h-0.06l-0.23,0.55l-0.17-0.55h-0.06l0.2,0.63h0.06L-189.37-48.86z M-189.32-48.36
				c0-0.05,0.05-0.08,0.13-0.09l0.14-0.01v0.05c0,0.07-0.07,0.13-0.16,0.13C-189.28-48.28-189.32-48.31-189.32-48.36z M-189.05-48.32
				v0.09h0.06l0.01-0.32c0-0.09-0.06-0.15-0.17-0.15c-0.1,0-0.18,0.06-0.18,0.14h0.06c0.01-0.06,0.06-0.09,0.13-0.09
				c0.08,0,0.12,0.04,0.12,0.11v0.04l-0.15,0.01c-0.11,0.01-0.18,0.05-0.18,0.13s0.06,0.14,0.15,0.14
				C-189.15-48.23-189.08-48.27-189.05-48.32z M-188.8-48.23l0.01-0.66h-0.06l-0.01,0.66H-188.8z M-188.6-48.23l0.01-0.66h-0.06
				l-0.01,0.66H-188.6z M-188.12-48.5h-0.3c0.01-0.09,0.06-0.16,0.15-0.16C-188.18-48.66-188.13-48.6-188.12-48.5z M-188.26-48.28
				c-0.1,0-0.16-0.07-0.16-0.17l0,0h0.36v-0.03c0-0.14-0.08-0.23-0.21-0.23s-0.21,0.1-0.21,0.24c0,0.15,0.08,0.24,0.22,0.24
				c0.1,0,0.18-0.06,0.2-0.14h-0.06C-188.14-48.32-188.19-48.28-188.26-48.28z M-187.76-48.21l0.17-0.49h-0.06l-0.13,0.41l-0.16-0.41
				H-188l0.19,0.47l-0.01,0.03c-0.02,0.06-0.04,0.08-0.09,0.08c-0.01,0-0.02,0-0.03,0v0.05c0.01,0,0.02,0,0.03,0
				C-187.83-48.07-187.8-48.1-187.76-48.21z M-186.74-48.55H-187v0.05h0.2v0.02c0.01,0.12-0.07,0.2-0.19,0.2
				c-0.14,0-0.23-0.11-0.24-0.27c-0.01-0.16,0.07-0.27,0.21-0.27c0.1,0,0.17,0.05,0.21,0.14h0.06c-0.03-0.12-0.14-0.2-0.27-0.2
				c-0.17,0-0.27,0.13-0.26,0.32c0.01,0.2,0.13,0.33,0.31,0.33c0.17,0,0.26-0.1,0.25-0.27L-186.74-48.55z M-186.53-48.23l-0.03-0.29
				c-0.01-0.08,0.03-0.13,0.1-0.13c0.02,0,0.04,0,0.05,0.01l-0.01-0.06c-0.01,0-0.02,0-0.04,0c-0.06,0-0.1,0.03-0.11,0.09l-0.01-0.08
				h-0.05l0.04,0.47L-186.53-48.23L-186.53-48.23z M-186-48.5h-0.3c0-0.09,0.05-0.16,0.13-0.16C-186.07-48.66-186.01-48.6-186-48.5z
				 M-186.11-48.28c-0.1,0-0.16-0.07-0.17-0.17l0,0h0.36v-0.03c-0.02-0.14-0.11-0.23-0.23-0.23c-0.13,0-0.2,0.1-0.19,0.24
				c0.01,0.15,0.11,0.24,0.24,0.24c0.1,0,0.18-0.06,0.18-0.14h-0.06C-185.99-48.32-186.04-48.28-186.11-48.28z M-185.49-48.5h-0.3
				c-0.01-0.09,0.05-0.16,0.13-0.16C-185.57-48.66-185.51-48.6-185.49-48.5z M-185.6-48.28c-0.1,0-0.17-0.07-0.18-0.17l0,0h0.36
				v-0.03c-0.02-0.14-0.11-0.23-0.24-0.23s-0.2,0.1-0.18,0.24c0.02,0.15,0.11,0.24,0.25,0.24c0.1,0,0.18-0.06,0.18-0.14h-0.06
				C-185.48-48.32-185.53-48.28-185.6-48.28z M-185.22-48.23l-0.04-0.28c-0.01-0.09,0.03-0.15,0.12-0.15c0.08,0,0.13,0.05,0.15,0.13
				l0.05,0.29h0.06l-0.05-0.3c-0.02-0.11-0.09-0.17-0.2-0.17c-0.08,0-0.12,0.03-0.14,0.09l-0.01-0.09h-0.05l0.07,0.47L-185.22-48.23
				L-185.22-48.23z M-184.52-48.23h0.21c0.19,0,0.28-0.12,0.24-0.31c-0.04-0.2-0.17-0.31-0.36-0.31h-0.21L-184.52-48.23z
				 M-184.42-48.81c0.15,0,0.26,0.09,0.29,0.26s-0.03,0.26-0.19,0.26h-0.15l-0.1-0.52C-184.57-48.81-184.42-48.81-184.42-48.81z
				 M-183.82-48.23l-0.06-0.29c-0.02-0.08,0.02-0.13,0.08-0.13c0.02,0,0.04,0,0.05,0.01l-0.01-0.06c-0.01,0-0.02,0-0.04,0
				c-0.06,0-0.1,0.03-0.1,0.09l-0.02-0.08h-0.05l0.1,0.47L-183.82-48.23L-183.82-48.23z"/>
			<path class="st9" d="M-189.78-54.54h-0.06l-0.02,0.56h0.06L-189.78-54.54z M-189.6-53.98v-0.25c0-0.08,0.05-0.13,0.14-0.13
				c0.08,0,0.12,0.04,0.12,0.12v0.26h0.06v-0.27c0-0.09-0.06-0.15-0.16-0.15c-0.07,0-0.13,0.03-0.15,0.08v-0.08h-0.05l-0.01,0.42
				C-189.65-53.98-189.6-53.98-189.6-53.98z M-189.06-53.98v-0.38h0.09v-0.04h-0.09v-0.05c0-0.05,0.02-0.06,0.06-0.06
				c0.01,0,0.02,0,0.03,0v-0.04c-0.01,0-0.02,0-0.04,0c-0.08,0-0.11,0.03-0.11,0.11v0.05h-0.06v0.04h0.06v0.38L-189.06-53.98
				L-189.06-53.98z M-188.79-53.98l-0.01-0.42h-0.06l0.01,0.42H-188.79z M-188.8-54.51c0-0.02-0.02-0.03-0.04-0.03
				s-0.04,0.02-0.04,0.03c0,0.02,0.02,0.03,0.04,0.03S-188.8-54.5-188.8-54.51z M-188.6-53.98l-0.01-0.25c0-0.08,0.05-0.13,0.13-0.13
				s0.13,0.04,0.13,0.12l0.01,0.26h0.06l-0.02-0.27c-0.01-0.09-0.07-0.15-0.17-0.15c-0.07,0-0.12,0.03-0.15,0.08v-0.08h-0.05
				l0.01,0.42C-188.66-53.98-188.6-53.98-188.6-53.98z M-188.08-53.98l-0.03-0.42h-0.06l0.03,0.42H-188.08z M-188.11-54.51
				c0-0.02-0.02-0.03-0.04-0.03s-0.04,0.02-0.04,0.03c0,0.02,0.02,0.03,0.04,0.03C-188.12-54.48-188.11-54.5-188.11-54.51z
				 M-187.95-54.4h-0.07v0.04h0.07l0.02,0.27c0.01,0.08,0.04,0.11,0.12,0.11c0.01,0,0.04,0,0.04,0v-0.04h-0.03
				c-0.04,0-0.06-0.02-0.07-0.06l-0.02-0.27h0.09v-0.04h-0.09l-0.01-0.1h-0.06L-187.95-54.4z M-187.37-54.22h-0.29
				c0-0.08,0.05-0.14,0.13-0.14C-187.44-54.36-187.38-54.3-187.37-54.22z M-187.48-54.02c-0.09,0-0.16-0.06-0.17-0.15l0,0h0.35v-0.02
				c-0.01-0.12-0.1-0.2-0.22-0.2s-0.2,0.09-0.19,0.21c0.01,0.13,0.1,0.21,0.23,0.21c0.1,0,0.17-0.05,0.18-0.12h-0.06
				C-187.36-54.05-187.41-54.02-187.48-54.02z M-186.88-54.03l-0.07-0.51h-0.06l0.07,0.56h0.38l-0.01-0.05
				C-186.57-54.03-186.88-54.03-186.88-54.03z M-186.11-54.19c-0.02-0.13-0.12-0.21-0.25-0.21s-0.2,0.08-0.18,0.21
				s0.12,0.21,0.25,0.21C-186.15-53.97-186.08-54.06-186.11-54.19z M-186.47-54.19c-0.02-0.1,0.03-0.17,0.12-0.17
				s0.16,0.06,0.18,0.17c0.02,0.1-0.03,0.17-0.13,0.17C-186.38-54.02-186.45-54.08-186.47-54.19z M-185.6-54.19
				c-0.03-0.13-0.13-0.21-0.25-0.21s-0.19,0.08-0.17,0.21c0.02,0.13,0.12,0.21,0.25,0.21S-185.57-54.06-185.6-54.19z M-185.96-54.19
				c-0.02-0.1,0.03-0.17,0.12-0.17s0.17,0.06,0.19,0.17c0.02,0.1-0.02,0.17-0.12,0.17S-185.94-54.08-185.96-54.19z M-185.46-54.31
				l-0.02-0.09h-0.05l0.12,0.56h0.06l-0.05-0.22c0.04,0.05,0.11,0.09,0.18,0.09c0.12,0,0.18-0.09,0.15-0.21
				c-0.03-0.13-0.13-0.21-0.25-0.21C-185.39-54.4-185.45-54.36-185.46-54.31z M-185.43-54.19c-0.02-0.1,0.02-0.17,0.11-0.17
				s0.16,0.07,0.19,0.17c0.02,0.1-0.02,0.17-0.11,0.17C-185.33-54.02-185.41-54.09-185.43-54.19z"/>
			<path class="st9" d="M-189.32-53.19l-0.22,0.51l-0.22-0.51h-0.06l-0.01,0.59h0.05l0.01-0.48l0.21,0.48h0.05l0.21-0.48l0.01,0.48
				h0.05l-0.01-0.59H-189.32z M-189.07-52.73c0-0.05,0.04-0.08,0.11-0.08l0.13-0.01v0.05c0,0.07-0.06,0.12-0.14,0.12
				C-189.03-52.65-189.07-52.68-189.07-52.73z M-188.82-52.69v0.08h0.05l-0.01-0.3c0-0.09-0.07-0.14-0.17-0.14
				c-0.09,0-0.16,0.05-0.16,0.13h0.05c0.01-0.05,0.05-0.08,0.11-0.08c0.07,0,0.11,0.04,0.12,0.1v0.04l-0.14,0.01
				c-0.11,0.01-0.16,0.05-0.16,0.13s0.06,0.13,0.16,0.13C-188.9-52.6-188.84-52.64-188.82-52.69z M-188.58-52.61l-0.02-0.27
				c0-0.07,0.03-0.12,0.1-0.12c0.02,0,0.03,0,0.04,0.01v-0.05c-0.01,0-0.02,0-0.03,0c-0.05,0-0.1,0.03-0.11,0.08l-0.01-0.08h-0.05
				l0.02,0.44L-188.58-52.61L-188.58-52.61z M-188.28-52.61l-0.03-0.44h-0.05l0.03,0.44H-188.28z M-188.31-53.17
				c0-0.02-0.02-0.04-0.04-0.04c-0.02,0-0.04,0.02-0.03,0.04c0,0.02,0.02,0.04,0.04,0.04C-188.33-53.13-188.31-53.15-188.31-53.17z
				 M-188.12-52.73c0-0.05,0.03-0.08,0.11-0.08l0.13-0.01v0.05c0.01,0.07-0.05,0.12-0.13,0.12
				C-188.07-52.65-188.12-52.68-188.12-52.73z M-187.87-52.69l0.01,0.08h0.05l-0.03-0.3c-0.01-0.09-0.08-0.14-0.18-0.14
				c-0.09,0-0.16,0.05-0.16,0.13h0.05c0.01-0.05,0.05-0.08,0.11-0.08c0.07,0,0.12,0.04,0.12,0.1v0.04l-0.14,0.01
				c-0.11,0.01-0.16,0.05-0.15,0.13c0.01,0.08,0.07,0.13,0.16,0.13C-187.94-52.6-187.89-52.64-187.87-52.69z M-187.62-52.61
				l-0.03-0.26c-0.01-0.08,0.03-0.14,0.11-0.14s0.12,0.04,0.13,0.12l0.04,0.27h0.06l-0.04-0.28c-0.01-0.1-0.08-0.16-0.18-0.16
				c-0.07,0-0.12,0.03-0.14,0.09l-0.01-0.08h-0.05l0.05,0.44H-187.62z M-187.13-52.61l-0.06-0.44h-0.05l0.06,0.44H-187.13z
				 M-187.2-53.17c0-0.02-0.02-0.04-0.04-0.04c-0.02,0-0.03,0.02-0.03,0.04s0.02,0.04,0.04,0.04S-187.2-53.15-187.2-53.17z
				 M-186.3-52.61l-0.33-0.59h-0.06l-0.12,0.59h0.06l0.04-0.18h0.25l0.1,0.18H-186.3z M-186.49-52.83h-0.22l0.06-0.29L-186.49-52.83z
				 M-186.05-53.04l-0.06,0.38l-0.22-0.38h-0.06l0.25,0.44h0.06l0.07-0.44H-186.05z M-185.56-52.86h-0.28
				c-0.01-0.09,0.03-0.15,0.11-0.15C-185.65-53-185.58-52.94-185.56-52.86z M-185.64-52.65c-0.09,0-0.16-0.06-0.18-0.16l0,0h0.34
				l-0.01-0.02c-0.03-0.13-0.13-0.21-0.24-0.21c-0.12,0-0.18,0.09-0.15,0.22c0.03,0.14,0.13,0.22,0.25,0.22
				c0.1,0,0.16-0.05,0.16-0.13h-0.05C-185.54-52.68-185.58-52.65-185.64-52.65z"/>
			<path class="st9" d="M-189.83-51.25h0.2c0.19,0,0.29-0.11,0.29-0.29s-0.11-0.29-0.29-0.29h-0.2V-51.25z M-189.63-51.79
				c0.15,0,0.23,0.09,0.23,0.24s-0.08,0.24-0.23,0.24h-0.14l0.01-0.48C-189.76-51.79-189.63-51.79-189.63-51.79z M-188.9-51.5h-0.28
				c0-0.09,0.06-0.14,0.14-0.14C-188.97-51.65-188.91-51.59-188.9-51.5z M-189.03-51.3c-0.09,0-0.15-0.06-0.15-0.16l0,0h0.34v-0.02
				c0-0.13-0.08-0.21-0.2-0.21s-0.2,0.09-0.2,0.22c0,0.14,0.09,0.22,0.21,0.22c0.1,0,0.17-0.05,0.18-0.13h-0.06
				C-188.92-51.33-188.96-51.3-189.03-51.3z M-188.03-51.25l-0.27-0.58h-0.06l-0.19,0.58h0.06l0.06-0.18h0.26l0.08,0.18H-188.03z
				 M-188.19-51.48h-0.22l0.09-0.29L-188.19-51.48z M-187.88-51.25l-0.02-0.26c-0.01-0.08,0.04-0.14,0.12-0.14s0.12,0.04,0.13,0.12
				l0.03,0.27h0.06l-0.03-0.28c-0.01-0.1-0.08-0.16-0.18-0.16c-0.07,0-0.12,0.03-0.14,0.09l-0.01-0.08h-0.05l0.04,0.44H-187.88z
				 M-187.11-51.25l-0.01-0.04h-0.28l0.23-0.35l-0.01-0.04h-0.33l0.01,0.04h0.27l-0.23,0.35v0.04H-187.11z M-186.99-51.38
				c-0.01-0.05,0.03-0.08,0.11-0.08l0.13-0.01l0.01,0.05c0.01,0.07-0.04,0.12-0.13,0.12C-186.93-51.3-186.98-51.33-186.99-51.38z
				 M-186.73-51.34l0.01,0.08h0.05l-0.05-0.3c-0.01-0.09-0.09-0.14-0.19-0.14c-0.09,0-0.16,0.05-0.15,0.13h0.05
				c0-0.05,0.04-0.08,0.11-0.08s0.12,0.04,0.13,0.1l0.01,0.04l-0.14,0.01c-0.11,0.01-0.16,0.05-0.15,0.12
				c0.01,0.08,0.08,0.13,0.17,0.13C-186.8-51.25-186.74-51.28-186.73-51.34z M-185.9-51.41c-0.02-0.08-0.09-0.14-0.17-0.15l0,0
				c0.06-0.01,0.1-0.07,0.09-0.13c-0.02-0.09-0.1-0.14-0.2-0.14h-0.22l0.1,0.58h0.23C-185.94-51.25-185.88-51.31-185.9-51.41z
				 M-186.18-51.79c0.08,0,0.14,0.04,0.15,0.1c0.01,0.07-0.03,0.11-0.13,0.11h-0.14l-0.04-0.21H-186.18z M-186.29-51.53h0.15
				c0.1,0,0.17,0.04,0.18,0.11s-0.03,0.11-0.13,0.11h-0.16L-186.29-51.53z M-185.7-51.25l-0.12-0.61h-0.05l0.12,0.61H-185.7z
				 M-185.36-51.69l-0.06,0.38l-0.22-0.38h-0.06l0.26,0.44h0.06l0.07-0.44H-185.36z M-184.81-51.35l0.02,0.09h0.05l-0.16-0.61h-0.06
				l0.07,0.26c-0.04-0.06-0.11-0.09-0.18-0.09c-0.11,0-0.17,0.09-0.14,0.22s0.13,0.22,0.25,0.22
				C-184.87-51.25-184.82-51.29-184.81-51.35z M-184.85-51.47c0.03,0.1-0.02,0.17-0.11,0.17s-0.16-0.07-0.19-0.17
				c-0.02-0.1,0.02-0.17,0.1-0.17C-184.95-51.65-184.87-51.58-184.85-51.47z"/>
			<ellipse id="Yellow" class="st10" cx="-191.08" cy="-50.05" rx="0.66" ry="0.41"/>
			<ellipse id="Green" class="st11" cx="-191.02" cy="-48.54" rx="0.66" ry="0.41"/>
			<ellipse id="Blue" class="st12" cx="-191.22" cy="-54.26" rx="0.66" ry="0.41"/>
			<ellipse id="Pink" class="st13" cx="-191.19" cy="-52.93" rx="0.66" ry="0.41"/>
			<ellipse id="Red" class="st14" cx="-191.13" cy="-51.52" rx="0.66" ry="0.41"/>
		</g>
		<path id="KEYNOTE" class="st9" d="M16.67,7.23l0.67,0.6h0.32l-0.8-0.72l0.9-0.57h-0.31l-0.98,0.63h-0.01l0.11-0.63h-0.25L16.1,7.83
			h0.25l0.07-0.45L16.67,7.23z M18.58,7.24h0.94l0.01-0.14h-0.94l0.05-0.41h0.98l0.01-0.14h-1.22l-0.16,1.29h1.26l0.01-0.14h-1
			L18.58,7.24z M21.82,6.54h-0.28l-0.57,0.58h-0.01l-0.5-0.58h-0.28l0.65,0.73L20.8,7.82h0.25l0.03-0.55L21.82,6.54z M22.67,6.82
			l1.09,1.01h0.25L24,6.54h-0.24v1.01h-0.01l-1.09-1.01h-0.24l-0.03,1.29h0.25l0.02-1.01C22.66,6.82,22.67,6.82,22.67,6.82z
			 M25.64,7.85c0.58,0,0.92-0.26,0.89-0.66c-0.03-0.41-0.4-0.67-0.96-0.67s-0.9,0.26-0.89,0.67C24.7,7.59,25.06,7.85,25.64,7.85z
			 M25.63,7.7c-0.41,0-0.68-0.2-0.69-0.52s0.24-0.52,0.64-0.52s0.67,0.2,0.69,0.52C26.3,7.5,26.05,7.7,25.63,7.7z M28.45,6.69
			l-0.02-0.14h-1.52l0.01,0.14h0.64l0.11,1.14h0.25l-0.11-1.14H28.45z M29.41,7.24h0.94L30.33,7.1h-0.94l-0.06-0.41h0.98l-0.02-0.14
			h-1.22l0.17,1.29h1.26L30.48,7.7h-1L29.41,7.24z"/>
		<polygon class="st15" points="39.4,8.78 15.64,8.78 15.67,8.57 39.36,8.57 	"/>
		<g id="Pie-Chart" transform="translate(95.348485, 61.620928)">
			<path id="Blue_1_" class="st16" d="M-79.14-46.91l5.39-1.62l1.2-3.39c0,0-4.72-0.4-6.65,2.26C-79.2-49.66-80.27-48.09-79.14-46.91
				"/>
			<path id="Purple" class="st17" d="M-69.03-50.3c-0.18-0.14-0.38-0.28-0.6-0.42c0,0-1.11-0.69-2.5-0.8l-1.07,3.28L-69.03-50.3z"/>
			<path id="Red_1_" class="st14" d="M-69.03-50.3c1.16,0.91,1.37,1.81,1.18,2.58l-5.37-0.5l0.01-0.04L-69.03-50.3z"/>
			<path id="Yellow_1_" class="st18" d="M-67.82-47.79c-0.28,1.35-1.81,2.33-1.81,2.33c-0.54,0.29-1.05,0.52-1.54,0.69l-0.26-0.02
				l-1.87-3.34l0.06-0.02l0.02-0.06C-73.22-48.21-67.82-47.79-67.82-47.79z"/>
			<path id="Green_1_" class="st19" d="M-69.69-45.43c-5.49,2.96-8.53-1.17-8.53-1.17l4.92-1.52L-69.69-45.43L-69.69-45.43z"/>
		</g>
	</g>
</svg>
