
<svg xmlns="http://www.w3.org/2000/svg" viewBox="0 0 55 55">
	<style type="text/css">
		.st0{fill-rule:evenodd;clip-rule:evenodd;fill:url(#foot_1_);filter:url(#dropshadow);}
		.st1{fill-rule:evenodd;clip-rule:evenodd;fill:url(#Oval-87_2_);}
		.st2{fill-rule:evenodd;clip-rule:evenodd;fill:url(#SVGID_1_);}
		.st3{opacity:0.3553;fill-rule:evenodd;clip-rule:evenodd;fill:url(#Leg-Reflection_1_);enable-background:new    ;}
		.st4{fill-rule:evenodd;clip-rule:evenodd;fill:url(#Table-Shadow_1_);}
		.st5{fill-rule:evenodd;clip-rule:evenodd;fill:url(#keynote-path-8_1_);}
		.st6{fill-rule:evenodd;clip-rule:evenodd;fill:url(#keynote-path-11_2_);}
		.st7{fill-rule:evenodd;clip-rule:evenodd;fill:url(#SVGID_2_);}
		.st8{fill-rule:evenodd;clip-rule:evenodd;fill:#FFFFFF;}
		.st9{fill-rule:evenodd;clip-rule:evenodd;}
		.st10{fill-rule:evenodd;clip-rule:evenodd;fill:#FFE146;}
		.st11{fill-rule:evenodd;clip-rule:evenodd;fill:#8EE463;}
		.st12{fill-rule:evenodd;clip-rule:evenodd;fill:#27B1F7;}
		.st13{fill-rule:evenodd;clip-rule:evenodd;fill:#E785F9;}
		.st14{fill-rule:evenodd;clip-rule:evenodd;fill:#FB5352;}
		.st15{fill:#ABABAB;}
		.st16{fill-rule:evenodd;clip-rule:evenodd;fill:#27B1F6;}
		.st17{fill-rule:evenodd;clip-rule:evenodd;fill:#E885F9;}
		.st18{fill-rule:evenodd;clip-rule:evenodd;fill:#FFE244;}
		.st19{fill-rule:evenodd;clip-rule:evenodd;fill:#8FE563;}
	</style>
	<filter filterUnits="objectBoundingBox" id="dropshadow">
		<feOffset dx="0" dy=".35" in="SourceAlpha" result="defappShadowOffsetOuter1"></feOffset>
		<feGaussianBlur stdDeviation=".35" in="defappShadowOffsetOuter1" result="defappShadowBlurOuter1"></feGaussianBlur>
		<feColorMatrix values="0 0 0 0 0   0 0 0 0 0   0 0 0 0 0  0 0 0 0.5 0" type="matrix" in="defappShadowBlurOuter1" result="defappShadowMatrixOuter1"></feColorMatrix>
		<feMerge>
			<feMergeNode in="defappShadowMatrixOuter1"/>
			<feMergeNode in="SourceGraphic"/>
		</feMerge>
	</filter>
	<linearGradient id="foot_1_" gradientUnits="userSpaceOnUse" x1="-269.0795" y1="448.2198" x2="-268.9783" y2="448.2186" gradientTransform="matrix(196.5409 0 0 -69.3235 52901.918 31120.0977)">
		<stop  offset="0" style="stop-color:#837E7C"/>
		<stop  offset="0.044" style="stop-color:#A8AAB1"/>
		<stop  offset="0.0725" style="stop-color:#C3D0D9"/>
		<stop  offset="0.1123" style="stop-color:#DDE7ED"/>
		<stop  offset="0.3818" style="stop-color:#A2BACC"/>
		<stop  offset="0.3818" style="stop-color:#A2BACC"/>
		<stop  offset="0.3827" style="stop-color:#A2BACC"/>
		<stop  offset="0.6334" style="stop-color:#6B90AC"/>
		<stop  offset="0.7026" style="stop-color:#97B2C5"/>
		<stop  offset="0.7756" style="stop-color:#A4BCC7"/>
		<stop  offset="0.8212" style="stop-color:#97A2A7"/>
		<stop  offset="0.8652" style="stop-color:#999791"/>
		<stop  offset="0.9273" style="stop-color:#968F86"/>
		<stop  offset="0.9597" style="stop-color:#898075"/>
		<stop  offset="0.9597" style="stop-color:#898075"/>
		<stop  offset="1" style="stop-color:#786E61"/>
	</linearGradient>
	<linearGradient id="Oval-87_2_" gradientUnits="userSpaceOnUse" x1="-269.0814" y1="448.1324" x2="-268.9707" y2="448.1324" gradientTransform="matrix(196.5409 0 0 -69.3235 52902.4219 31113.7617)">
		<stop  offset="0" style="stop-color:#88BFEA"/>
		<stop  offset="0.3634" style="stop-color:#FEFFFF"/>
		<stop  offset="0.5576" style="stop-color:#FFFFFF"/>
		<stop  offset="0.63" style="stop-color:#FFFFFF"/>
		<stop  offset="0.633" style="stop-color:#FFFFFF"/>
		<stop  offset="1" style="stop-color:#76B2F0"/>
	</linearGradient>
	<linearGradient id="SVGID_1_" gradientUnits="userSpaceOnUse" x1="-266.4997" y1="447.8838" x2="-266.389" y2="447.8838" gradientTransform="matrix(30.5095 0 0 -239.3817 8156.7495 107249.9531)">
		<stop  offset="0" style="stop-color:#837E7C"/>
		<stop  offset="0.044" style="stop-color:#A8AAB1"/>
		<stop  offset="0.0725" style="stop-color:#C3D0D9"/>
		<stop  offset="0.1123" style="stop-color:#DDE7ED"/>
		<stop  offset="0.682" style="stop-color:#B6CCD6"/>
		<stop  offset="0.7026" style="stop-color:#97B2C5"/>
		<stop  offset="0.7756" style="stop-color:#A4BCC7"/>
		<stop  offset="0.8212" style="stop-color:#97A2A7"/>
		<stop  offset="0.8652" style="stop-color:#999791"/>
		<stop  offset="0.9273" style="stop-color:#968F86"/>
		<stop  offset="1" style="stop-color:#786E61"/>
	</linearGradient>
	<linearGradient id="Leg-Reflection_1_" gradientUnits="userSpaceOnUse" x1="-266.524" y1="448.2468" x2="-266.4133" y2="448.2468" gradientTransform="matrix(30.7268 0 0 -33.4804 8215.4209 15056.9141)">
		<stop  offset="0" style="stop-color:#837E7C"/>
		<stop  offset="0.044" style="stop-color:#A8AAB1"/>
		<stop  offset="0.0725" style="stop-color:#C3D0D9"/>
		<stop  offset="0.1123" style="stop-color:#DDE7ED"/>
		<stop  offset="0.682" style="stop-color:#B6CCD6"/>
		<stop  offset="0.7026" style="stop-color:#97B2C5"/>
		<stop  offset="0.7756" style="stop-color:#A4BCC7"/>
		<stop  offset="0.8212" style="stop-color:#97A2A7"/>
		<stop  offset="0.8652" style="stop-color:#999791"/>
		<stop  offset="0.9273" style="stop-color:#968F86"/>
		<stop  offset="1" style="stop-color:#786E61"/>
	</linearGradient>
	<linearGradient id="Table-Shadow_1_" gradientUnits="userSpaceOnUse" x1="-269.2665" y1="446.6472" x2="-269.2665" y2="446.6414" gradientTransform="matrix(405.3541 0 0 -180.2412 109175.7734 80525.0234)">
		<stop  offset="0" style="stop-color:#1D86CB"/>
		<stop  offset="1" style="stop-color:#094275"/>
	</linearGradient>
	<linearGradient id="keynote-path-8_1_" gradientUnits="userSpaceOnUse" x1="-269.2665" y1="446.7065" x2="-269.2665" y2="446.5959" gradientTransform="matrix(404.7358 0 0 -180.2412 109009.2969 80515.7891)">
		<stop  offset="0" style="stop-color:#0299FB"/>
		<stop  offset="1" style="stop-color:#6EDAFE"/>
	</linearGradient>
	<radialGradient id="keynote-path-11_2_" cx="-224.7307" cy="450.0039" r="0.166" gradientTransform="matrix(3.395916e-16 5.5459 84.8603 -5.196131e-15 -38159.9453 1265.2587)" gradientUnits="userSpaceOnUse">
		<stop  offset="0" style="stop-color:#007AA8"/>
		<stop  offset="1" style="stop-color:#004C87"/>
	</radialGradient>
	<radialGradient id="SVGID_2_" cx="-223.8331" cy="450.0036" r="0.166" gradientTransform="matrix(3.395874e-16 5.5459 84.8593 -5.196131e-15 -38159.4492 1259.6613)" gradientUnits="userSpaceOnUse">
		<stop  offset="0" style="stop-color:#A4E9FC"/>
		<stop  offset="1" style="stop-color:#5DDDFD"/>
	</radialGradient>
	
	<path id="foot" class="st0" d="M27.64,43.77c4.43,0,8.82,1.11,10.37,2.62c0.27,0.27,0.51,0.85,0.5,1.92
		c-0.01,2.12-4.87,3.84-10.87,3.84s-10.87-1.72-10.87-3.84c0-0.73,0.12-1.78,1.13-2.36C19.81,44.84,23.71,43.77,27.64,43.77z"/>
	<ellipse id="Oval-87_1_" class="st1" cx="27.7" cy="47.6" rx="10.87" ry="3.84"/>
	<path class="st2" d="M29.34,47.55c0.01,0,0.02,0,0.02,0V21.51H26v25.93c0,0.01-0.01,0.03-0.01,0.05s0,0.03,0.01,0.05v0.02
		c0,0,0,0,0.01,0c0.1,0.25,0.81,0.45,1.67,0.45C28.53,47.99,29.24,47.8,29.34,47.55z"/>
	<path id="Leg-Reflection" class="st3" d="M29.23,51.44l0.16-4.05c0,0-0.32,0.2-0.68,0.32c-0.35,0.12-0.74,0.13-1.03,0.13
		c-0.24,0-0.64-0.03-0.97-0.13c-0.4-0.12-0.72-0.32-0.72-0.32l0.2,4.05H29.23z"/>
	<g id="Table_1_">
		<path id="Table-Shadow" class="st4" d="M27.5,1.88h18.02c0.56,0,1.1,0.44,1.21,1c0,0,2.11,11.15,3.13,16.75
			c0.03,0.17,0.08,0.5,0.07,0.71c-0.02,0.3-0.08,0.48-0.08,0.48c-0.12,0.56-0.69,1.01-1.25,1.01H27.5H6.41
			c-0.56,0-1.13-0.45-1.25-1.01c0,0-0.06-0.18-0.08-0.48c-0.01-0.21,0.04-0.54,0.07-0.71c1.02-5.6,3.13-16.75,3.13-16.75
			c0.11-0.56,0.65-1,1.21-1H27.5z"/>
		<path id="keynote-path-8" class="st5" d="M49.89,19.8c0.1,0.56-0.27,1.01-0.83,1.01H5.98c-0.56,0-0.94-0.45-0.83-1.01L8.5,1.87
			c0.1-0.56,0.65-1.01,1.21-1.01h35.62c0.56,0,1.11,0.45,1.21,1.01L49.89,19.8z"/>
		<polygon id="keynote-path-11_1_" class="st6" points="48.82,18.93 48.58,19.54 6.49,19.54 6.21,18.93 	"/>
		
		<path class="st7" d="M48.55,18.31l0.29,0.61H29.97H6.2l0.29-0.61H48.55z"/>
		<polygon id="keynote-path-14_1_" class="st8" points="40.46,3.68 42.21,16.87 12.85,16.87 14.6,3.68 	"/>
		<g id="Name" transform="translate(221.454545, 64.701974)">
			<path class="st9" d="M-189.6-52.34h0.22l0-0.05h-0.49l0,0.05h0.22l0.01,0.53h0.06L-189.6-52.34z M-189.34-51.93
				c0-0.05,0.04-0.08,0.12-0.08l0.14-0.01l0,0.05c0,0.07-0.06,0.12-0.15,0.12C-189.29-51.85-189.34-51.88-189.34-51.93z
				 M-189.07-51.89l0.01,0.08h0.06l-0.01-0.3c0-0.09-0.08-0.14-0.19-0.14c-0.1,0-0.18,0.05-0.18,0.13h0.06
				c0.01-0.05,0.06-0.08,0.12-0.08c0.08,0,0.12,0.04,0.13,0.1l0,0.04l-0.15,0.01c-0.12,0.01-0.18,0.05-0.18,0.12
				c0,0.07,0.07,0.13,0.17,0.13C-189.16-51.8-189.09-51.84-189.07-51.89z M-188.81-51.81l-0.01-0.25c0-0.08,0.05-0.14,0.13-0.14
				c0.08,0,0.13,0.04,0.14,0.12l0.02,0.27h0.06l-0.02-0.28c-0.01-0.1-0.08-0.16-0.18-0.16c-0.08,0-0.13,0.03-0.15,0.09l-0.01-0.08
				h-0.06l0.02,0.43H-188.81z M-188.34-52.24h-0.07l0,0.04h0.07l0.02,0.28c0.01,0.08,0.04,0.11,0.12,0.11c0.01,0,0.04,0,0.05,0
				l0-0.05c0,0-0.03,0-0.03,0c-0.05,0-0.07-0.02-0.07-0.06l-0.02-0.28h0.1l0-0.04h-0.1l-0.01-0.1h-0.06L-188.34-52.24z M-188-51.93
				c0-0.05,0.04-0.08,0.12-0.08l0.14-0.01l0.01,0.05c0.01,0.07-0.05,0.12-0.14,0.12C-187.95-51.85-188-51.88-188-51.93z
				 M-187.73-51.89l0.01,0.08h0.06l-0.03-0.3c-0.01-0.09-0.09-0.14-0.2-0.14c-0.1,0-0.17,0.05-0.17,0.13h0.06
				c0.01-0.05,0.05-0.08,0.12-0.08c0.08,0,0.13,0.04,0.13,0.1l0,0.04l-0.15,0.01c-0.12,0.01-0.17,0.05-0.17,0.12
				c0.01,0.07,0.08,0.13,0.18,0.13C-187.81-51.8-187.75-51.84-187.73-51.89z M-187.25-52.24l0.03,0.25c0.01,0.08-0.04,0.14-0.13,0.14
				c-0.08,0-0.14-0.04-0.14-0.12l-0.03-0.27h-0.06l0.03,0.28c0.01,0.1,0.09,0.16,0.19,0.16c0.08,0,0.13-0.03,0.15-0.09l0.01,0.08
				h0.06l-0.06-0.43H-187.25z M-186.24-51.81l-0.34-0.58h-0.06l-0.15,0.58h0.07l0.04-0.18h0.27l0.1,0.18H-186.24z M-186.44-52.03
				h-0.24l0.07-0.29L-186.44-52.03z M-185.95-52.24l-0.08,0.38l-0.22-0.38h-0.06l0.26,0.43h0.06l0.1-0.43H-185.95z M-185.43-52.05
				h-0.3c-0.01-0.09,0.04-0.14,0.12-0.14C-185.52-52.2-185.45-52.14-185.43-52.05z M-185.52-51.85c-0.1,0-0.17-0.06-0.19-0.16l0,0
				h0.37l-0.01-0.02c-0.03-0.13-0.13-0.21-0.26-0.21c-0.13,0-0.2,0.09-0.17,0.22c0.03,0.14,0.13,0.22,0.27,0.22
				c0.11,0,0.18-0.05,0.17-0.13h-0.06C-185.4-51.88-185.45-51.85-185.52-51.85z"/>
			<path class="st9" d="M-189.37-50.86h-0.06l-0.23,0.55l-0.17-0.55h-0.06l0.2,0.63h0.06L-189.37-50.86z M-189.32-50.36
				c0-0.05,0.05-0.08,0.13-0.09l0.14-0.01l0,0.05c0,0.07-0.07,0.13-0.16,0.13C-189.28-50.28-189.32-50.31-189.32-50.36z
				 M-189.05-50.32l0,0.09h0.06l0.01-0.32c0-0.09-0.06-0.15-0.17-0.15c-0.1,0-0.18,0.06-0.18,0.14h0.06
				c0.01-0.06,0.06-0.09,0.13-0.09c0.08,0,0.12,0.04,0.12,0.11l0,0.04l-0.15,0.01c-0.11,0.01-0.18,0.05-0.18,0.13
				c0,0.08,0.06,0.14,0.15,0.14C-189.15-50.23-189.08-50.27-189.05-50.32z M-188.8-50.23l0.01-0.66h-0.06l-0.01,0.66H-188.8z
				 M-188.6-50.23l0.01-0.66h-0.06l-0.01,0.66H-188.6z M-188.12-50.5h-0.3c0.01-0.09,0.06-0.16,0.15-0.16
				C-188.18-50.66-188.13-50.6-188.12-50.5z M-188.26-50.28c-0.1,0-0.16-0.07-0.16-0.17v0h0.36l0-0.03c0-0.14-0.08-0.23-0.21-0.23
				c-0.13,0-0.21,0.1-0.21,0.24c0,0.15,0.08,0.24,0.22,0.24c0.1,0,0.18-0.06,0.2-0.14h-0.06C-188.14-50.32-188.19-50.28-188.26-50.28
				z M-187.76-50.21l0.17-0.49h-0.06l-0.13,0.41l-0.16-0.41h-0.06l0.19,0.47l-0.01,0.03c-0.02,0.06-0.04,0.08-0.09,0.08
				c-0.01,0-0.02,0-0.03,0l0,0.05c0.01,0,0.02,0,0.03,0C-187.83-50.07-187.8-50.1-187.76-50.21z M-186.74-50.55h-0.26l0,0.05h0.2
				l0,0.02c0.01,0.12-0.07,0.2-0.19,0.2c-0.14,0-0.23-0.11-0.24-0.27c-0.01-0.16,0.07-0.27,0.21-0.27c0.1,0,0.17,0.05,0.21,0.14h0.06
				c-0.03-0.12-0.14-0.2-0.27-0.2c-0.17,0-0.27,0.13-0.26,0.32c0.01,0.2,0.13,0.33,0.31,0.33c0.17,0,0.26-0.1,0.25-0.27
				L-186.74-50.55z M-186.53-50.23l-0.03-0.29c-0.01-0.08,0.03-0.13,0.1-0.13c0.02,0,0.04,0,0.05,0.01l-0.01-0.06
				c-0.01,0-0.02,0-0.04,0c-0.06,0-0.1,0.03-0.11,0.09l-0.01-0.08h-0.05l0.04,0.47H-186.53z M-186-50.5h-0.3
				c0-0.09,0.05-0.16,0.13-0.16C-186.07-50.66-186.01-50.6-186-50.5z M-186.11-50.28c-0.1,0-0.16-0.07-0.17-0.17l0,0h0.36l0-0.03
				c-0.02-0.14-0.11-0.23-0.23-0.23c-0.13,0-0.2,0.1-0.19,0.24c0.01,0.15,0.11,0.24,0.24,0.24c0.1,0,0.18-0.06,0.18-0.14h-0.06
				C-185.99-50.32-186.04-50.28-186.11-50.28z M-185.49-50.5h-0.3c-0.01-0.09,0.05-0.16,0.13-0.16
				C-185.57-50.66-185.51-50.6-185.49-50.5z M-185.6-50.28c-0.1,0-0.17-0.07-0.18-0.17l0,0h0.36l0-0.03
				c-0.02-0.14-0.11-0.23-0.24-0.23c-0.13,0-0.2,0.1-0.18,0.24c0.02,0.15,0.11,0.24,0.25,0.24c0.1,0,0.18-0.06,0.18-0.14h-0.06
				C-185.48-50.32-185.53-50.28-185.6-50.28z M-185.22-50.23l-0.04-0.28c-0.01-0.09,0.03-0.15,0.12-0.15c0.08,0,0.13,0.05,0.15,0.13
				l0.05,0.29h0.06l-0.05-0.3c-0.02-0.11-0.09-0.17-0.2-0.17c-0.08,0-0.12,0.03-0.14,0.09l-0.01-0.09h-0.05l0.07,0.47H-185.22z
				 M-184.52-50.23h0.21c0.19,0,0.28-0.12,0.24-0.31c-0.04-0.2-0.17-0.31-0.36-0.31h-0.21L-184.52-50.23z M-184.42-50.81
				c0.15,0,0.26,0.09,0.29,0.26c0.03,0.17-0.03,0.26-0.19,0.26h-0.15l-0.1-0.52H-184.42z M-183.82-50.23l-0.06-0.29
				c-0.02-0.08,0.02-0.13,0.08-0.13c0.02,0,0.04,0,0.05,0.01l-0.01-0.06c-0.01,0-0.02,0-0.04,0c-0.06,0-0.1,0.03-0.1,0.09l-0.02-0.08
				h-0.05l0.1,0.47H-183.82z"/>
			<path class="st9" d="M-189.78-56.54h-0.06l-0.02,0.56h0.06L-189.78-56.54z M-189.6-55.98l0-0.25c0-0.08,0.05-0.13,0.14-0.13
				c0.08,0,0.12,0.04,0.12,0.12l0,0.26h0.06l0-0.27c0-0.09-0.06-0.15-0.16-0.15c-0.07,0-0.13,0.03-0.15,0.08l0-0.08h-0.05l-0.01,0.42
				H-189.6z M-189.06-55.98l0-0.38h0.09l0-0.04h-0.09l0-0.05c0-0.05,0.02-0.06,0.06-0.06c0.01,0,0.02,0,0.03,0l0-0.04
				c-0.01,0-0.02,0-0.04,0c-0.08,0-0.11,0.03-0.11,0.11l0,0.05h-0.06l0,0.04h0.06l0,0.38H-189.06z M-188.79-55.98l-0.01-0.42h-0.06
				l0.01,0.42H-188.79z M-188.8-56.51c0-0.02-0.02-0.03-0.04-0.03s-0.04,0.02-0.04,0.03c0,0.02,0.02,0.03,0.04,0.03
				C-188.82-56.48-188.8-56.5-188.8-56.51z M-188.6-55.98l-0.01-0.25c0-0.08,0.05-0.13,0.13-0.13c0.08,0,0.13,0.04,0.13,0.12
				l0.01,0.26h0.06l-0.02-0.27c-0.01-0.09-0.07-0.15-0.17-0.15c-0.07,0-0.12,0.03-0.15,0.08l0-0.08h-0.05l0.01,0.42H-188.6z
				 M-188.08-55.98l-0.03-0.42h-0.06l0.03,0.42H-188.08z M-188.11-56.51c0-0.02-0.02-0.03-0.04-0.03s-0.04,0.02-0.04,0.03
				c0,0.02,0.02,0.03,0.04,0.03C-188.12-56.48-188.11-56.5-188.11-56.51z M-187.95-56.4h-0.07l0,0.04h0.07l0.02,0.27
				c0.01,0.08,0.04,0.11,0.12,0.11c0.01,0,0.04,0,0.04,0l0-0.04c0,0-0.03,0-0.03,0c-0.04,0-0.06-0.02-0.07-0.06l-0.02-0.27h0.09
				l0-0.04h-0.09l-0.01-0.1h-0.06L-187.95-56.4z M-187.37-56.22h-0.29c0-0.08,0.05-0.14,0.13-0.14
				C-187.44-56.36-187.38-56.3-187.37-56.22z M-187.48-56.02c-0.09,0-0.16-0.06-0.17-0.15l0,0h0.35l0-0.02
				c-0.01-0.12-0.1-0.2-0.22-0.2c-0.12,0-0.2,0.09-0.19,0.21c0.01,0.13,0.1,0.21,0.23,0.21c0.1,0,0.17-0.05,0.18-0.12h-0.06
				C-187.36-56.05-187.41-56.02-187.48-56.02z M-186.88-56.03l-0.07-0.51h-0.06l0.07,0.56h0.38l-0.01-0.05H-186.88z M-186.11-56.19
				c-0.02-0.13-0.12-0.21-0.25-0.21s-0.2,0.08-0.18,0.21s0.12,0.21,0.25,0.21C-186.15-55.97-186.08-56.06-186.11-56.19z
				 M-186.47-56.19c-0.02-0.1,0.03-0.17,0.12-0.17c0.09,0,0.16,0.06,0.18,0.17c0.02,0.1-0.03,0.17-0.13,0.17
				C-186.38-56.02-186.45-56.08-186.47-56.19z M-185.6-56.19c-0.03-0.13-0.13-0.21-0.25-0.21s-0.19,0.08-0.17,0.21
				c0.02,0.13,0.12,0.21,0.25,0.21S-185.57-56.06-185.6-56.19z M-185.96-56.19c-0.02-0.1,0.03-0.17,0.12-0.17
				c0.09,0,0.17,0.06,0.19,0.17c0.02,0.1-0.02,0.17-0.12,0.17C-185.87-56.02-185.94-56.08-185.96-56.19z M-185.46-56.31l-0.02-0.09
				h-0.05l0.12,0.56h0.06l-0.05-0.22c0.04,0.05,0.11,0.09,0.18,0.09c0.12,0,0.18-0.09,0.15-0.21c-0.03-0.13-0.13-0.21-0.25-0.21
				C-185.39-56.4-185.45-56.36-185.46-56.31z M-185.43-56.19c-0.02-0.1,0.02-0.17,0.11-0.17c0.09,0,0.16,0.07,0.19,0.17
				c0.02,0.1-0.02,0.17-0.11,0.17C-185.33-56.02-185.41-56.09-185.43-56.19z"/>
			<path class="st9" d="M-189.32-55.19l-0.22,0.51l-0.22-0.51h-0.06l-0.01,0.59h0.05l0.01-0.48l0.21,0.48h0.05l0.21-0.48l0.01,0.48
				h0.05l-0.01-0.59H-189.32z M-189.07-54.73c0-0.05,0.04-0.08,0.11-0.08l0.13-0.01l0,0.05c0,0.07-0.06,0.12-0.14,0.12
				C-189.03-54.65-189.07-54.68-189.07-54.73z M-188.82-54.69l0,0.08h0.05l-0.01-0.3c0-0.09-0.07-0.14-0.17-0.14
				c-0.09,0-0.16,0.05-0.16,0.13h0.05c0.01-0.05,0.05-0.08,0.11-0.08c0.07,0,0.11,0.04,0.12,0.1l0,0.04l-0.14,0.01
				c-0.11,0.01-0.16,0.05-0.16,0.13c0,0.08,0.06,0.13,0.16,0.13C-188.9-54.6-188.84-54.64-188.82-54.69z M-188.58-54.61l-0.02-0.27
				c0-0.07,0.03-0.12,0.1-0.12c0.02,0,0.03,0,0.04,0.01l0-0.05c-0.01,0-0.02,0-0.03,0c-0.05,0-0.1,0.03-0.11,0.08l-0.01-0.08h-0.05
				l0.02,0.44H-188.58z M-188.28-54.61l-0.03-0.44h-0.05l0.03,0.44H-188.28z M-188.31-55.17c0-0.02-0.02-0.04-0.04-0.04
				c-0.02,0-0.04,0.02-0.03,0.04c0,0.02,0.02,0.04,0.04,0.04C-188.33-55.13-188.31-55.15-188.31-55.17z M-188.12-54.73
				c0-0.05,0.03-0.08,0.11-0.08l0.13-0.01l0,0.05c0.01,0.07-0.05,0.12-0.13,0.12C-188.07-54.65-188.12-54.68-188.12-54.73z
				 M-187.87-54.69l0.01,0.08h0.05l-0.03-0.3c-0.01-0.09-0.08-0.14-0.18-0.14c-0.09,0-0.16,0.05-0.16,0.13h0.05
				c0.01-0.05,0.05-0.08,0.11-0.08c0.07,0,0.12,0.04,0.12,0.1l0,0.04l-0.14,0.01c-0.11,0.01-0.16,0.05-0.15,0.13
				c0.01,0.08,0.07,0.13,0.16,0.13C-187.94-54.6-187.89-54.64-187.87-54.69z M-187.62-54.61l-0.03-0.26
				c-0.01-0.08,0.03-0.14,0.11-0.14c0.08,0,0.12,0.04,0.13,0.12l0.04,0.27h0.06l-0.04-0.28c-0.01-0.1-0.08-0.16-0.18-0.16
				c-0.07,0-0.12,0.03-0.14,0.09l-0.01-0.08h-0.05l0.05,0.44H-187.62z M-187.13-54.61l-0.06-0.44h-0.05l0.06,0.44H-187.13z
				 M-187.2-55.17c0-0.02-0.02-0.04-0.04-0.04c-0.02,0-0.03,0.02-0.03,0.04c0,0.02,0.02,0.04,0.04,0.04S-187.2-55.15-187.2-55.17z
				 M-186.3-54.61l-0.33-0.59h-0.06l-0.12,0.59h0.06l0.04-0.18h0.25l0.1,0.18H-186.3z M-186.49-54.83h-0.22l0.06-0.29L-186.49-54.83z
				 M-186.05-55.04l-0.06,0.38l-0.22-0.38h-0.06l0.25,0.44h0.06l0.07-0.44H-186.05z M-185.56-54.86h-0.28
				c-0.01-0.09,0.03-0.15,0.11-0.15C-185.65-55-185.58-54.94-185.56-54.86z M-185.64-54.65c-0.09,0-0.16-0.06-0.18-0.16l0,0h0.34
				l-0.01-0.02c-0.03-0.13-0.13-0.21-0.24-0.21c-0.12,0-0.18,0.09-0.15,0.22c0.03,0.14,0.13,0.22,0.25,0.22
				c0.1,0,0.16-0.05,0.16-0.13h-0.05C-185.54-54.68-185.58-54.65-185.64-54.65z"/>
			<path class="st9" d="M-189.83-53.25h0.2c0.19,0,0.29-0.11,0.29-0.29c0-0.18-0.11-0.29-0.29-0.29h-0.2L-189.83-53.25z
				 M-189.63-53.79c0.15,0,0.23,0.09,0.23,0.24c0,0.15-0.08,0.24-0.23,0.24h-0.14l0.01-0.48H-189.63z M-188.9-53.5h-0.28
				c0-0.09,0.06-0.14,0.14-0.14C-188.97-53.65-188.91-53.59-188.9-53.5z M-189.03-53.3c-0.09,0-0.15-0.06-0.15-0.16l0,0h0.34l0-0.02
				c0-0.13-0.08-0.21-0.2-0.21c-0.12,0-0.2,0.09-0.2,0.22c0,0.14,0.09,0.22,0.21,0.22c0.1,0,0.17-0.05,0.18-0.13h-0.06
				C-188.92-53.33-188.96-53.3-189.03-53.3z M-188.03-53.25l-0.27-0.58h-0.06l-0.19,0.58h0.06l0.06-0.18h0.26l0.08,0.18H-188.03z
				 M-188.19-53.48h-0.22l0.09-0.29L-188.19-53.48z M-187.88-53.25l-0.02-0.26c-0.01-0.08,0.04-0.14,0.12-0.14
				c0.08,0,0.12,0.04,0.13,0.12l0.03,0.27h0.06l-0.03-0.28c-0.01-0.1-0.08-0.16-0.18-0.16c-0.07,0-0.12,0.03-0.14,0.09l-0.01-0.08
				h-0.05l0.04,0.44H-187.88z M-187.11-53.25l-0.01-0.04h-0.28l0.23-0.35l-0.01-0.04h-0.33l0.01,0.04h0.27l-0.23,0.35l0,0.04H-187.11
				z M-186.99-53.38c-0.01-0.05,0.03-0.08,0.11-0.08l0.13-0.01l0.01,0.05c0.01,0.07-0.04,0.12-0.13,0.12
				C-186.93-53.3-186.98-53.33-186.99-53.38z M-186.73-53.34l0.01,0.08h0.05l-0.05-0.3c-0.01-0.09-0.09-0.14-0.19-0.14
				c-0.09,0-0.16,0.05-0.15,0.13h0.05c0-0.05,0.04-0.08,0.11-0.08c0.07,0,0.12,0.04,0.13,0.1l0.01,0.04l-0.14,0.01
				c-0.11,0.01-0.16,0.05-0.15,0.12c0.01,0.08,0.08,0.13,0.17,0.13C-186.8-53.25-186.74-53.28-186.73-53.34z M-185.9-53.41
				c-0.02-0.08-0.09-0.14-0.17-0.15l0,0c0.06-0.01,0.1-0.07,0.09-0.13c-0.02-0.09-0.1-0.14-0.2-0.14h-0.22l0.1,0.58h0.23
				C-185.94-53.25-185.88-53.31-185.9-53.41z M-186.18-53.79c0.08,0,0.14,0.04,0.15,0.1c0.01,0.07-0.03,0.11-0.13,0.11h-0.14
				l-0.04-0.21H-186.18z M-186.29-53.53h0.15c0.1,0,0.17,0.04,0.18,0.11c0.01,0.07-0.03,0.11-0.13,0.11h-0.16L-186.29-53.53z
				 M-185.7-53.25l-0.12-0.61h-0.05l0.12,0.61H-185.7z M-185.36-53.69l-0.06,0.38l-0.22-0.38h-0.06l0.26,0.44h0.06l0.07-0.44H-185.36
				z M-184.81-53.35l0.02,0.09h0.05l-0.16-0.61h-0.06l0.07,0.26c-0.04-0.06-0.11-0.09-0.18-0.09c-0.11,0-0.17,0.09-0.14,0.22
				c0.03,0.13,0.13,0.22,0.25,0.22C-184.87-53.25-184.82-53.29-184.81-53.35z M-184.85-53.47c0.03,0.1-0.02,0.17-0.11,0.17
				c-0.09,0-0.16-0.07-0.19-0.17c-0.02-0.1,0.02-0.17,0.1-0.17C-184.95-53.65-184.87-53.58-184.85-53.47z"/>
			<ellipse id="Yellow" class="st10" cx="-191.08" cy="-52.05" rx="0.66" ry="0.41"/>
			<ellipse id="Green" class="st11" cx="-191.02" cy="-50.54" rx="0.66" ry="0.41"/>
			<ellipse id="Blue" class="st12" cx="-191.22" cy="-56.26" rx="0.66" ry="0.41"/>
			<ellipse id="Pink" class="st13" cx="-191.19" cy="-54.93" rx="0.66" ry="0.41"/>
			<ellipse id="Red" class="st14" cx="-191.13" cy="-53.52" rx="0.66" ry="0.41"/>
		</g>
		<path id="KEYNOTE" class="st9" d="M16.67,5.23l0.67,0.6h0.32l-0.8-0.72l0.9-0.57h-0.31l-0.98,0.63h-0.01l0.11-0.63h-0.25L16.1,5.83
			h0.25l0.07-0.45L16.67,5.23z M18.58,5.24h0.94l0.01-0.14h-0.94l0.05-0.41h0.98l0.01-0.14h-1.22l-0.16,1.29h1.26l0.01-0.14h-1
			L18.58,5.24z M21.82,4.54h-0.28l-0.57,0.58h-0.01l-0.5-0.58h-0.28l0.65,0.73l-0.03,0.55h0.25l0.03-0.55L21.82,4.54z M22.67,4.82
			l1.09,1.01h0.25l-0.01-1.29h-0.24l0,1.01h-0.01l-1.09-1.01h-0.24l-0.03,1.29h0.25l0.02-1.01H22.67z M25.64,5.85
			c0.58,0,0.92-0.26,0.89-0.66c-0.03-0.41-0.4-0.67-0.96-0.67s-0.9,0.26-0.89,0.67C24.7,5.59,25.06,5.85,25.64,5.85z M25.63,5.7
			c-0.41,0-0.68-0.2-0.69-0.52c-0.01-0.32,0.24-0.52,0.64-0.52c0.4,0,0.67,0.2,0.69,0.52C26.3,5.5,26.05,5.7,25.63,5.7z M28.45,4.69
			l-0.02-0.14h-1.52l0.01,0.14h0.64l0.11,1.14h0.25l-0.11-1.14H28.45z M29.41,5.24h0.94L30.33,5.1h-0.94l-0.06-0.41h0.98l-0.02-0.14
			h-1.22l0.17,1.29h1.26l-0.02-0.14h-1L29.41,5.24z"/>
		<polygon class="st15" points="39.4,6.78 15.64,6.78 15.67,6.57 39.36,6.57 	"/>
		<g id="Pie-Chart" transform="translate(95.348485, 61.620928)">
			<path id="Blue_1_" class="st16" d="M-79.14-48.91l5.39-1.62l1.2-3.39c0,0-4.72-0.4-6.65,2.26C-79.2-51.66-80.27-50.09-79.14-48.91
				"/>
			<path id="Purple" class="st17" d="M-69.03-52.3c-0.18-0.14-0.38-0.28-0.6-0.42c0,0-1.11-0.69-2.5-0.8l-1.07,3.28L-69.03-52.3z"/>
			<path id="Red_1_" class="st14" d="M-69.03-52.3c1.16,0.91,1.37,1.81,1.18,2.58l-5.37-0.5l0.01-0.04L-69.03-52.3z"/>
			<path id="Yellow_1_" class="st18" d="M-67.82-49.79c-0.28,1.35-1.81,2.33-1.81,2.33c-0.54,0.29-1.05,0.52-1.54,0.69l-0.26-0.02
				l-1.87-3.34l0.06-0.02l0.02-0.06C-73.22-50.21-67.82-49.79-67.82-49.79z"/>
			<path id="Green_1_" class="st19" d="M-69.69-47.43c-5.49,2.96-8.53-1.17-8.53-1.17l4.92-1.52L-69.69-47.43L-69.69-47.43z"/>
		</g>
	</g>
</svg>
