<svg xmlns="http://www.w3.org/2000/svg" width="0" height="0">

	<svg id="icon-undo" viewBox="0 0 13 13">
		<path fill="#333" d="M6.5,1.9C5,1.9,3.6,2.5,2.6,3.5L1,1.9V6h4.1L3.6,4.5c0.7-0.7,1.8-1.2,2.9-1.2c2.3,0,4.1,1.8,4.1,4.1c0,1.2-0.5,2.3-1.4,3.1
			l0.9,1c1.1-1,1.9-2.5,1.9-4.1C12,4.3,9.5,1.9,6.5,1.9z"/>
	</svg>

	<svg id="icon-redo" viewBox="0 0 13 13">
		<path fill="#333" d="M1,7.4c0,1.6,0.7,3.1,1.8,4.1l0.9-1C2.9,9.7,2.4,8.6,2.4,7.4c0-2.3,1.8-4.1,4.1-4.1c1.1,0,2.2,0.5,2.9,1.2L7.9,6H12V1.9
			l-1.6,1.6c-1-1-2.4-1.6-3.9-1.6C3.5,1.9,1,4.4,1,7.4z"/>
	</svg>

	<svg id="icon-formula" viewBox="0 0 13 13">
		<style type="text/css">
			.st0{fill:#333;}
		</style>
		<polygon class="st0" points="9,6 7,6 7,4 6,4 6,6 4,6 4,7 6,7 6,9 7,9 7,7 9,7 "/>
		<path class="st0" d="M12,9.1V3V2h-1H2.9C2.7,1.4,2.2,1,1.5,1C0.7,1,0,1.7,0,2.5c0,0.7,0.4,1.2,1,1.4V10v1h1h8.1c0.2,0.6,0.8,1,1.4,1 c0.8,0,1.5-0.7,1.5-1.5C13,9.8,12.6,9.3,12,9.1z M1.5,2C1.8,2,2,2.2,2,2.5S1.8,3,1.5,3S1,2.8,1,2.5S1.2,2,1.5,2z M2,3.9 C2.4,3.8,2.8,3.4,2.9,3H11v6.1c-0.4,0.2-0.8,0.5-0.9,0.9H2V3.9z M11.5,11c-0.3,0-0.5-0.2-0.5-0.5s0.2-0.5,0.5-0.5s0.5,0.2,0.5,0.5 S11.8,11,11.5,11z"/>
	</svg>

	<svg id="icon-table" viewBox="0 0 13 13">
		<style type="text/css">
			.st0{fill:#333;}
		</style>
		<rect x="1" y="1" class="st0" width="5" height="3"/>
		<rect x="7" y="1" class="st0" width="5" height="3"/>
		<rect x="1" y="5" class="st0" width="5" height="3"/>
		<rect x="7" y="5" class="st0" width="5" height="3"/>
		<rect x="1" y="9" class="st0" width="5" height="3"/>
		<rect x="7" y="9" class="st0" width="5" height="3"/>
	</svg>

	<svg id="icon-chart" viewBox="0 0 13 13">
		<style type="text/css">
			.st0{fill:#333;}
		</style>
		<rect x="1" y="7" class="st0" width="3" height="5"/>
		<rect x="5" y="4" class="st0" width="3" height="8"/>
		<rect x="9" y="1" class="st0" width="3" height="11"/>
	</svg>

	<svg id="icon-text" viewBox="0 0 13 13">
		<style type="text/css">
			.st0{fill:#333;}
		</style>
		<rect x="5" y="1" class="st0" width="3" height="11"/>
		<rect x="1" y="1" class="st0" width="11" height="2"/>
	</svg>

	<svg id="icon-shape" viewBox="0 0 13 13">
		<style type="text/css">
			.st0{fill:#333;}
		</style>
		<rect class="st0" x="5" y="5" width="7" height="7"/>
		<path class="st0" d="M4,4h4.9C8.4,2.3,6.9,1,5,1C2.8,1,1,2.8,1,5c0,1.9,1.3,3.4,3,3.9V4z"/>
	</svg>

	<svg id="icon-image" viewBox="0 0 13 13">
		<style type="text/css">
			.st0{fill:#333;}
		</style>
		<polygon class="st0" points="11,7.2 8.3,4.6 5.1,7.8 4.1,6.8 2,8.8 2,10 11,10 "/>
		<path class="st0" d="M0,2v1v8v1h13v-1V3V2H0z M12,11H1V3h11V11z"/>
		<path class="st0" d="M3.2,6.4c0.7,0,1.2-0.5,1.2-1.2C4.5,4.5,3.9,4,3.2,4C2.6,4,2,4.5,2,5.2C2,5.9,2.6,6.4,3.2,6.4z"/>
	</svg>

	<svg id="icon-format" viewBox="0 0 13 13">
		<style type="text/css">
			.st0{fill:#333;}
		</style>
		<path class="st0" d="M5.8,8.9C6.7,9.3,7.1,10,8.2,8.9c-1-1-4.1-4.1-4.1-4.1c-0.8,0.8-0.6,1.4,0,2.3C4.7,7.9,3,8.8,2.7,9 C2.3,9.2,1,10,1,10.8C1,11.4,1.7,12,2.2,12c0.7-0.1,1.4-1,1.8-1.7C4.5,9.6,5.1,8.5,5.8,8.9z M1.9,11.1c-0.2-0.2-0.2-0.4,0-0.6 c0.2-0.2,0.4-0.2,0.6,0c0.2,0.2,0.2,0.4,0,0.6C2.3,11.3,2.1,11.3,1.9,11.1z"/>
		<path class="st0" d="M4.8,4c0.1-0.1,2.5-2.7,2.6-2.9C7.5,1,7.9,0.9,8.1,1.1c0.2,0.1,0.4,0.3,0.5,0.4s0,0.2,0,0.3 C8.5,1.8,6.8,3.9,6.8,3.9S9,2.2,9.1,2.2c0.1-0.1,0.4-0.1,0.5,0c0.1,0.1,2.3,2.8,2.3,3c0.1,0.2,0,0.6-0.2,0.7C11.6,6.1,9.1,8.2,9,8.3 c-0.1,0.1-0.3,0.2-0.5,0C8.3,8.1,4.9,4.7,4.8,4.6C4.7,4.4,4.7,4.2,4.8,4z"/>
	</svg>

</svg>