<svg xmlns="http://www.w3.org/2000/svg" width="0" height="0">

	<svg id="icon-undo" viewBox="0 0 13 13">
		<path fill="#333" d="M6.5,1.9C5,1.9,3.6,2.5,2.6,3.5L1,1.9V6h4.1L3.6,4.5c0.7-0.7,1.8-1.2,2.9-1.2c2.3,0,4.1,1.8,4.1,4.1c0,1.2-0.5,2.3-1.4,3.1
			l0.9,1c1.1-1,1.9-2.5,1.9-4.1C12,4.3,9.5,1.9,6.5,1.9z"/>
	</svg>

	<svg id="icon-redo" viewBox="0 0 13 13">
		<path fill="#333" d="M1,7.4c0,1.6,0.7,3.1,1.8,4.1l0.9-1C2.9,9.7,2.4,8.6,2.4,7.4c0-2.3,1.8-4.1,4.1-4.1c1.1,0,2.2,0.5,2.9,1.2L7.9,6H12V1.9
			l-1.6,1.6c-1-1-2.4-1.6-3.9-1.6C3.5,1.9,1,4.4,1,7.4z"/>
	</svg>

	<svg id="icon-overview" viewBox="0 0 13 13">
		<style type="text/css">
			.st0{fill:#333;}
		</style>
		<path class="st0" d="M1,1v3h3V1H1z"/>
		<path class="st0" d="M5,1v3h3V1H5z"/>
		<path class="st0" d="M9,1v3h3V1H9z"/>
		<path class="st0" d="M1,5v3h3V5H1z"/>
		<path class="st0" d="M5,5v3h3V5H5z"/>
		<path class="st0" d="M9,5v3h3V5H9z"/>
		<path class="st0" d="M1,9v3h3V9H1z"/>
		<path class="st0" d="M5,9v3h3V9H5z"/>
		<path class="st0" d="M9,9v3h3V9H9z"/>
	</svg>

	<svg id="icon-play" viewBox="0 0 13 13">
		<style type="text/css">
			.st0{fill:#333;}
		</style>
		<path class="st0" d="M2,1.7v9.6c0,0.4,0.4,0.6,0.7,0.4l8.4-4.8c0.3-0.2,0.3-0.6,0-0.8L2.7,1.3C2.4,1.1,2,1.4,2,1.7z"/>
	</svg>

	<svg id="icon-new-slide" viewBox="0 0 13 13">
		<style type="text/css">
			.st0{fill:#333;}
		</style>
		<polygon class="st0" points="9,6 7,6 7,4 6,4 6,6 4,6 4,7 6,7 6,9 7,9 7,7 9,7 "/>
		<path class="st0" d="M1,2v9h11V2H1z M2,3h9v7H2V3z"/>
	</svg>

	<svg id="icon-table" viewBox="0 0 13 13">
		<style type="text/css">
			.st0{fill:#333;}
		</style>
		<rect x="1" y="1" class="st0" width="5" height="3"/>
		<rect x="7" y="1" class="st0" width="5" height="3"/>
		<rect x="1" y="5" class="st0" width="5" height="3"/>
		<rect x="7" y="5" class="st0" width="5" height="3"/>
		<rect x="1" y="9" class="st0" width="5" height="3"/>
		<rect x="7" y="9" class="st0" width="5" height="3"/>
	</svg>

	<svg id="icon-chart" viewBox="0 0 13 13">
		<style type="text/css">
			.st0{fill:#333;}
		</style>
		<rect x="1" y="7" class="st0" width="3" height="5"/>
		<rect x="5" y="4" class="st0" width="3" height="8"/>
		<rect x="9" y="1" class="st0" width="3" height="11"/>
	</svg>

	<svg id="icon-text" viewBox="0 0 13 13">
		<style type="text/css">
			.st0{fill:#333;}
		</style>
		<rect x="5" y="1" class="st0" width="3" height="11"/>
		<rect x="1" y="1" class="st0" width="11" height="2"/>
	</svg>

	<svg id="icon-shape" viewBox="0 0 13 13">
		<style type="text/css">
			.st0{fill:#333;}
		</style>
		<rect class="st0" x="5" y="5" width="7" height="7"/>
		<path class="st0" d="M4,4h4.9C8.4,2.3,6.9,1,5,1C2.8,1,1,2.8,1,5c0,1.9,1.3,3.4,3,3.9V4z"/>
	</svg>

	<svg id="icon-image" viewBox="0 0 13 13">
		<style type="text/css">
			.st0{fill:#333;}
		</style>
		<polygon class="st0" points="11,7.2 8.3,4.6 5.1,7.8 4.1,6.8 2,8.8 2,10 11,10 "/>
		<path class="st0" d="M0,2v1v8v1h13v-1V3V2H0z M12,11H1V3h11V11z"/>
		<path class="st0" d="M3.2,6.4c0.7,0,1.2-0.5,1.2-1.2C4.5,4.5,3.9,4,3.2,4C2.6,4,2,4.5,2,5.2C2,5.9,2.6,6.4,3.2,6.4z"/>
	</svg>

	<svg id="icon-format" viewBox="0 0 13 13">
		<style type="text/css">
			.st0{fill:#333;}
		</style>
		<path class="st0" d="M5.8,8.9C6.7,9.3,7.1,10,8.2,8.9c-1-1-4.1-4.1-4.1-4.1c-0.8,0.8-0.6,1.4,0,2.3C4.7,7.9,3,8.8,2.7,9 C2.3,9.2,1,10,1,10.8C1,11.4,1.7,12,2.2,12c0.7-0.1,1.4-1,1.8-1.7C4.5,9.6,5.1,8.5,5.8,8.9z M1.9,11.1c-0.2-0.2-0.2-0.4,0-0.6 c0.2-0.2,0.4-0.2,0.6,0c0.2,0.2,0.2,0.4,0,0.6C2.3,11.3,2.1,11.3,1.9,11.1z"/>
		<path class="st0" d="M4.8,4c0.1-0.1,2.5-2.7,2.6-2.9C7.5,1,7.9,0.9,8.1,1.1c0.2,0.1,0.4,0.3,0.5,0.4s0,0.2,0,0.3 C8.5,1.8,6.8,3.9,6.8,3.9S9,2.2,9.1,2.2c0.1-0.1,0.4-0.1,0.5,0c0.1,0.1,2.3,2.8,2.3,3c0.1,0.2,0,0.6-0.2,0.7C11.6,6.1,9.1,8.2,9,8.3 c-0.1,0.1-0.3,0.2-0.5,0C8.3,8.1,4.9,4.7,4.8,4.6C4.7,4.4,4.7,4.2,4.8,4z"/>
	</svg>

	<svg id="icon-add" viewBox="0 0 13 13">
		<style type="text/css">
			.st0{fill:#333;}
		</style>
		<rect class="st0" x="6" y="1" width="1" height="11"/>
		<rect class="st0" x="1" y="6" width="11" height="1"/>
	</svg>

	<svg id="icon-new-file" viewBox="0 0 17 17">
		<polygon fill="#333" points="3,2 3,15 14,15 14,7 8.9,7 8.9,2 "/>
		<polygon fill="#333" points="9.7,6.3 13.9,6.3 9.7,2.1 "/>
	</svg>

	<svg id="icon-folder-open" viewBox="0 0 17 17">
		<path fill="#333" d="M16,9.5c0,0.2-0.1,0.4-0.2,0.5L13.1,13c-0.5,0.5-1.4,1-2.1,1H2.3c-0.3,0-0.7-0.1-0.7-0.4c0-0.2,0.1-0.4,0.2-0.5L4.5,10
			C5,9.4,5.9,9,6.6,9h8.7C15.6,9,16,9.1,16,9.5z M13.2,6.4V8H6.6c-1,0-2.2,0.6-2.9,1.3L1,12.4c0-0.1,0-0.1,0-0.2l0-7.7
			C1,3.5,1.3,3,2.3,3h3.5c1,0,1.4,0.3,1.4,1.3V5h4.7C12.8,5,13.2,5.4,13.2,6.4z"/>
	</svg>

	<svg id="icon-clipboard" viewBox="0 0 17 17">
		<path fill="#333" d="M14.6,2.9h-4.2c0-1-0.8-1.9-1.9-1.9S6.6,1.8,6.6,2.9H2.4c-0.3,0-0.5,0.2-0.5,0.5v12.2c0,0.3,0.2,0.5,0.5,0.5h12.2
			c0.3,0,0.5-0.2,0.5-0.5V3.3C15.1,3.1,14.9,2.9,14.6,2.9z M8.5,1.9c0.5,0,0.9,0.4,0.9,0.9S9,3.8,8.5,3.8S7.6,3.4,7.6,2.9
			S8,1.9,8.5,1.9z M14,15H3V4h1.7v1.5C4.7,5.8,5,6,5.2,6h6.6c0.3,0,0.5-0.2,0.5-0.5V4H14V15z"/>
		<path fill="#333" d="M7.6,13.6l-3-3.5l0.9-0.9l2.2,1.7l4-3.6l0.9,0.9L7.6,13.6z"/>
	</svg>

	<svg id="table-outline-solid" viewBox="0 0 60 19">
		<rect x="0" y="8" width="60" height="3"/>
	</svg>

	<svg id="table-outline-dotted" viewBox="0 0 60 19">
		<rect x="19" y="8" width="3" height="3"/>
		<rect x="31" y="8" width="3" height="3"/>
		<rect x="25" y="8" width="3" height="3"/>
		<rect x="7" y="8" width="3" height="3"/>
		<rect x="13" y="8" width="3" height="3"/>
		<rect x="1" y="8" width="3" height="3"/>
		<rect x="37" y="8" width="3" height="3"/>
		<rect x="55" y="8" width="3" height="3"/>
		<rect x="49" y="8" width="3" height="3"/>
		<rect x="43" y="8" width="3" height="3"/>
	</svg>

	<svg id="table-outline-dashed" viewBox="0 0 60 19">
		<rect x="25" y="8" width="9" height="3"/>
		<rect x="13" y="8" width="9" height="3"/>
		<rect x="1" y="8" width="9" height="3"/>
		<rect x="37" y="8" width="9" height="3"/>
		<rect x="49" y="8" width="9" height="3"/>
	</svg>

	<svg id="icon-valign-top" viewBox="0 0 19 13">
		<style type="text/css">
			.st0{fill:#333;}
		</style>
		<rect class="st0" x="2" y="1" width="15" height="1"/>
		<rect class="st0" x="9" y="3" width="1" height="9"/>
		<polygon class="st0" points="8.8,2.7 6,5.5 6.7,6.2 9.5,3.4 12.3,6.2 13,5.5 10.2,2.7 9.5,2 "/>
	</svg>

	<svg id="icon-valign-middle" viewBox="0 0 19 13">
		<style type="text/css">
			.st0{fill:#333;}
		</style>
		<rect class="st0" x="2" y="6" width="15" height="1"/>
		<rect class="st0" x="9" width="1" height="5"/>
		<rect class="st0" x="9" y="8" width="1" height="5"/>
		<polygon class="st0" points="10.2,5.4 13,2.5 12.3,1.8 9.5,4.7 6.7,1.8 6,2.5 8.8,5.4 9.5,6.1 "/>
		<polygon class="st0" points="8.8,7.7 6,10.5 6.7,11.2 9.5,8.4 12.3,11.2 13,10.5 10.2,7.7 9.5,7 "/>
	</svg>

	<svg id="icon-valign-bottom" viewBox="0 0 19 13">
		<style type="text/css">
			.st0{fill:#333;}
		</style>
		<rect class="st0" x="2" y="11" width="15" height="1"/>
		<rect class="st0" x="9" y="1" width="1" height="9"/>
		<polygon class="st0" points="10.2,10.4 13,7.5 12.3,6.8 9.5,9.7 6.7,6.8 6,7.5 8.8,10.4 9.5,11.1 "/>
	</svg>

	<svg id="icon-justify-left" viewBox="0 0 19 19">
		<style type="text/css">
			.st0{fill:#333;}
		</style>
		<rect x="3" y="5" class="st0" width="13" height="1"/>
		<rect x="3" y="7" class="st0" width="9" height="1"/>
		<rect x="3" y="9" class="st0" width="12" height="1"/>
		<rect x="3" y="11" class="st0" width="8" height="1"/>
		<rect x="3" y="13" class="st0" width="13" height="1"/>
	</svg>

	<svg id="icon-justify-center" viewBox="0 0 19 19">
		<style type="text/css">
			.st0{fill:#333;}
		</style>
		<rect x="3" y="5" class="st0" width="13" height="1"/>
		<rect x="5" y="7" class="st0" width="9" height="1"/>
		<rect x="4" y="9" class="st0" width="11" height="1"/>
		<rect x="6" y="11" class="st0" width="7" height="1"/>
		<rect x="3" y="13" class="st0" width="13" height="1"/>
	</svg>

	<svg id="icon-justify-right" viewBox="0 0 19 19">
		<style type="text/css">
			.st0{fill:#333;}
		</style>
		<rect x="3" y="5" class="st0" width="13" height="1"/>
		<rect x="7" y="7" class="st0" width="9" height="1"/>
		<rect x="5" y="9" class="st0" width="11" height="1"/>
		<rect x="9" y="11" class="st0" width="7" height="1"/>
		<rect x="3" y="13" class="st0" width="13" height="1"/>>
	</svg>

	<svg id="icon-justify-full" viewBox="0 0 19 19">
		<style type="text/css">
			.st0{fill:#333;}
		</style>
		<rect x="3" y="5" class="st0" width="13" height="1"/>
		<rect x="3" y="7" class="st0" width="13" height="1"/>
		<rect x="3" y="9" class="st0" width="13" height="1"/>
		<rect x="3" y="11" class="st0" width="13" height="1"/>
		<rect x="3" y="13" class="st0" width="13" height="1"/>
	</svg>

	<svg id="icon-justify-fit" viewBox="0 0 19 19">
		<style type="text/css">
			.st0{fill:#333;}
		</style>
		<rect x="3" y="5" class="st0" width="5.2" height="1"/>
		<rect x="10.8" y="5" class="st0" width="5.2" height="1"/>
		<rect x="3" y="7" class="st0" width="4.2" height="1"/>
		<rect x="11.7" y="7" class="st0" width="4.2" height="1"/>
		<rect x="3" y="9" class="st0" width="3.6" height="1"/>
		<rect x="12.4" y="9" class="st0" width="3.6" height="1"/>
		<rect x="3" y="11" transform="matrix(-1 -1.224647e-16 1.224647e-16 -1 8.8092 23)" class="st0" width="2.8" height="1"/>
		<rect x="13.2" y="11" transform="matrix(-1 -1.224647e-16 1.224647e-16 -1 29.1908 23)" class="st0" width="2.8" height="1"/>
		<rect x="3" y="13" class="st0" width="2" height="1"/>
		<rect x="14" y="13" class="st0" width="2" height="1"/>
		<path d="M8.1,11.6L7.3,14h-1l2.6-7.6h1.2l2.6,7.6h-1l-0.8-2.4H8.1z M10.6,10.9L9.9,8.7C9.7,8.2,9.6,7.7,9.5,7.3h0 C9.3,7.7,9.2,8.2,9.1,8.7l-0.7,2.2H10.6z"/>
	</svg>

	<svg id="icon-big-a" viewBox="0 0 19 19">
		<style type="text/css">
			.st0{fill:#333;}
		</style>
		<path class="st0" d="M12.1,13H6.9l-1.4,3h-2l6-13l5.8,13h-2L12.1,13z M11.4,11.3L9.6,7.1l-1.9,4.2H11.4z"/>
	</svg>

	<svg id="icon-small-a" viewBox="0 0 19 19">
		<style type="text/css">
			.st0{fill:#333;}
		</style>
		<path class="st0" d="M11.7,13.5H7.3L6.2,16H4.5L9.6,5l4.9,11h-1.7L11.7,13.5z M11.1,12L9.6,8.5L8,12H11.1z"/>
	</svg>

	<svg id="icon-bold" viewBox="0 0 19 19">
		<style type="text/css">
			.st0{fill:#333;}
		</style>
		<path class="st0" d="M5.7,5h3.6c0.7,0,1.2,0,1.6,0.1s0.7,0.2,0.9,0.4c0.3,0.2,0.5,0.4,0.7,0.8s0.3,0.7,0.3,1.1c0,0.4-0.1,0.8-0.3,1.2 C12.3,8.8,12,9,11.6,9.2c0.6,0.2,1,0.4,1.3,0.8c0.3,0.4,0.4,0.8,0.4,1.4c0,0.4-0.1,0.8-0.3,1.2c-0.2,0.4-0.5,0.7-0.8,0.9 c-0.3,0.2-0.7,0.4-1.2,0.4c-0.3,0-1,0.1-2.2,0.1H5.7V5z M7.5,6.5v2.1h1.2c0.7,0,1.2,0,1.3,0c0.3,0,0.6-0.1,0.7-0.3 C11,8,11.1,7.8,11.1,7.5c0-0.3-0.1-0.5-0.2-0.7s-0.4-0.3-0.7-0.3c-0.2,0-0.7,0-1.6,0H7.5z M7.5,10.1v2.4h1.7c0.7,0,1.1,0,1.3-0.1 c0.3,0,0.5-0.2,0.7-0.4c0.2-0.2,0.3-0.4,0.3-0.8c0-0.3-0.1-0.5-0.2-0.7s-0.3-0.3-0.6-0.4c-0.2-0.1-0.8-0.1-1.6-0.1H7.5z"/>
	</svg>

	<svg id="icon-italic" viewBox="0 0 19 19">
		<style type="text/css">
			.st0{fill:#333;}
		</style>
		<path class="st0" d="M8,14l1.9-9H11l-1.9,9H8z"/>
		<rect class="st0" x="8.2" y="5" width="4" height="1"/>
		<rect class="st0" x="6.7" y="13" width="4" height="1"/>
	</svg>

	<svg id="icon-underline" viewBox="0 0 19 19">
		<style type="text/css">
			.st0{fill:#333;}
		</style>
		<rect class="st0" x="6" y="13" width="7" height="1"/>
		<path class="st0" d="M11,5v4.5c0,0.8-0.7,1.5-1.5,1.5S8,10.3,8,9.5V5H7v4.5C7,10.8,8.1,12,9.5,12c1.4,0,2.5-1.1,2.5-2.5V5H11z"/>
	</svg>

	<svg id="icon-strike" viewBox="0 0 19 19">
		<style type="text/css">
			.st0{fill:#333;}
			.st1{fill:#333;opacity:.8;}
		</style>
		<rect class="st0" x="4" y="9" width="11" height="1"/>
		<path class="st1" d="M6.1,11l1.1-0.1c0.1,0.4,0.2,0.8,0.4,1.1s0.5,0.5,0.9,0.7s0.8,0.3,1.3,0.3c0.4,0,0.8-0.1,1.1-0.2s0.6-0.3,0.7-0.5 s0.2-0.5,0.2-0.7c0-0.3-0.1-0.5-0.2-0.7s-0.4-0.4-0.8-0.5c-0.2-0.1-0.7-0.2-1.5-0.4S7.9,9.5,7.6,9.3C7.2,9.1,6.9,8.8,6.7,8.5 S6.4,7.8,6.4,7.4c0-0.4,0.1-0.8,0.4-1.2s0.6-0.7,1.1-0.9s1-0.3,1.6-0.3c0.6,0,1.2,0.1,1.7,0.3s0.9,0.5,1.1,0.9s0.4,0.8,0.4,1.4 l-1.1,0.1c-0.1-0.5-0.3-1-0.6-1.2s-0.8-0.4-1.5-0.4C8.8,6.1,8.3,6.2,8,6.4S7.5,7,7.5,7.3c0,0.3,0.1,0.6,0.3,0.8 c0.2,0.2,0.8,0.4,1.7,0.6s1.6,0.4,1.9,0.5c0.5,0.2,0.9,0.5,1.1,0.9s0.4,0.8,0.4,1.2c0,0.5-0.1,0.9-0.4,1.3s-0.6,0.7-1.1,0.9 s-1,0.3-1.7,0.3c-0.8,0-1.4-0.1-2-0.3s-0.9-0.6-1.2-1C6.3,12.1,6.1,11.6,6.1,11z"/>
	</svg>

	<svg id="icon-arrange-back" viewBox="0 0 19 19">
		<style type="text/css">
			.st0{fill:#9FAFBF;}
			.st1{fill:#55A6F6;}
		</style>
		<rect x="3" y="3" class="st0" width="9" height="9"/>
		<polygon class="st1" points="13,7 13,13 7,13 7,16 13,16 14,16 16,16 16,7 "/>
	</svg>

	<svg id="icon-arrange-front" viewBox="0 0 19 19">
		<style type="text/css">
			.st0{fill:#55A6F6;}
			.st1{fill:#9FAFBF;}
		</style>
		<rect x="3" y="3" class="st0" width="9" height="9"/>
		<polygon class="st1" points="13,7 13,13 7,13 7,16 13,16 14,16 16,16 16,7 "/>
	</svg>

	<svg id="icon-arrange-backward" viewBox="0 0 19 19">
		<style type="text/css">
			.st0{fill:#9FAFBF;}
			.st1{fill:#55A6F6;}
		</style>
		<rect x="3" y="3" class="st0" width="9" height="9"/>
	<polygon class="st1" points="13,7 13,13 7,13 7,16 13,16 14,16 16,16 16,7 "/>
	<path class="st1" d="M1.3,8.9c-0.5,1.2-0.2,5,3,4.4l-0.1-1.4l2.4,2l-2,2.4l-0.1-1.4C0.1,15.3-0.1,10.8,1.3,8.9z"/>
	</svg>

	<svg id="icon-arrange-forward" viewBox="0 0 19 19">
		<style type="text/css">
			.st0{fill:#55A6F6;}
			.st1{fill:#9FAFBF;}
		</style>
		<rect x="3" y="3" class="st0" width="9" height="9"/>
		<polygon class="st1" points="13,7 13,13 7,13 7,16 13,16 14,16 16,16 16,7 "/>
		<path class="st0" d="M16.9,9.6c0.7-1.1,1-4.9-2.2-4.8l-0.1,1.4l-2-2.3l2.3-2l-0.1,1.4C19.2,3.4,18.6,8,16.9,9.6"/>
	</svg>

	@import "shapes.svg"

</svg>