
<svg id="shape-line" viewBox="0 0 100 100" cache="keep">
	<style type="text/css">
		.dsic0{
			stroke-width: 2;
			stroke: #333;
		}
	</style>
	<line class="dsic0" x1="3" y1="94" x2="94" y2="3"/>
	<rect stroke-width="1" stroke="#000" fill="#fff" x="2" y="80" width="16" height="16"/>
	<rect stroke-width="1" stroke="#000" fill="#fff" x="80" y="2" width="16" height="16"/>
</svg>

<svg id="shape-bezier" viewBox="0 0 100 100" cache="keep">
	<style type="text/css">
		.dsic0{
			fill: transparent;
			stroke-width: 2;
			stroke: #333;
		}
	</style>
	<path class="dsic0" d="M10,94 C20,-30 80,90 94,6"/>
	<rect stroke-width="1" stroke="#000" fill="#fff" x="2" y="84" width="16" height="16"/>
	<rect stroke-width="1" stroke="#000" fill="#fff" x="82" y="2" width="16" height="16"/>
</svg>

<svg id="shape-rectangle" viewBox="0 0 100 100" cache="keep">
	<style type="text/css">
		.dsic0{fill:#444;}
	</style>
	<rect class="dsic0" x="0" y="0" width="100%" height="100%"/>
</svg>

<svg id="shape-rounded" viewBox="0 0 100 100" cache="keep">
	<style type="text/css">
		.dsic0{fill:#444;}
	</style>
	<rect class="dsic0" x="0" y="0" width="100%" height="100%" rx="15"/>
</svg>

<svg id="shape-disc" viewBox="0 0 100 100" cache="keep">
	<style type="text/css">
		.dsic0{fill:#444;}
	</style>
	<circle class="dsic0" cx="50" cy="50" r="50"/>
</svg>

<svg id="shape-triangle" viewBox="0 0 100 100" cache="keep">
	<style type="text/css">
		.dsic0{fill:#444;}
	</style>
	<polygon class="dsic0" points="97,97 50,3.6 3,97 "/>
</svg>

<svg id="shape-hexagon" viewBox="0 0 100 100" cache="keep">
	<style type="text/css">
		.dsic0{fill:#444;}
	</style>
	<polygon class="dsic0" points="73.4,9.5 26.6,9.5 3.2,50 26.6,90.5 73.4,90.5 96.8,50 "/>
</svg>

<svg id="shape-star" viewBox="0 0 100 100" cache="keep">
	<style type="text/css">
		.dsic0{fill:#444;}
	</style>
	<path class="dsic0" d="M50,4.6L35.1,34L3,39.3l22.9,23.5L21,95.4l29-14.8l29,14.8l-4.9-32.6L97,39.3L64.9,34L50,4.6z"/>
</svg>

<svg id="shape-pentagon" viewBox="0 0 100 100" cache="keep">
	<style type="text/css">
		.dsic0{fill:#444;}
	</style>
	<polygon class="dsic0" points="23.2,96.9 3.1,43.3 50,3.1 96.9,43.3 76.8,96.9 "/>
</svg>



<svg id="icon-text-style-1" viewBox="0 0 77 56">
	<style type="text/css">
		.st0{fill:#222;}
		.st1{fill:#fff;}
	</style>
	<path class="st0" d="M67.3,53H9.7c-3.5,0-6.3-2.8-6.3-6.3V9.3C3.4,5.8,6.2,3,9.7,3h57.7c3.5,0,6.3,2.8,6.3,6.3v37.5 C73.6,50.2,70.8,53,67.3,53z"/>
	<path class="st1" d="M32,23.9h-3.7V34h-2.5V23.9h-3.7v-2H32V23.9z"/>
	<path class="st1" d="M36.7,34.1c-1.3,0-2.4-0.4-3.2-1.2c-0.8-0.8-1.2-1.9-1.2-3.2v-0.2c0-0.9,0.2-1.7,0.5-2.4 c0.3-0.7,0.8-1.3,1.5-1.6c0.6-0.4,1.4-0.6,2.2-0.6c1.2,0,2.2,0.4,2.9,1.2c0.7,0.8,1.1,1.9,1.1,3.3v1h-5.7c0.1,0.6,0.3,1.1,0.7,1.4 c0.4,0.4,0.9,0.5,1.5,0.5c0.9,0,1.6-0.3,2.2-1l1.2,1.3c-0.4,0.5-0.8,0.9-1.5,1.2S37.4,34.1,36.7,34.1z M36.4,26.7 c-0.5,0-0.9,0.2-1.2,0.5c-0.3,0.3-0.5,0.8-0.6,1.4H38v-0.2c0-0.5-0.2-0.9-0.4-1.2C37.3,26.9,36.9,26.7,36.4,26.7z"/>
	<path class="st1" d="M45.2,27.7l1.5-2.7h2.6l-2.6,4.4l2.7,4.6h-2.6l-1.6-2.8L43.6,34H41l2.7-4.6L41.1,25h2.6L45.2,27.7z"/>
	<path class="st1" d="M53.3,22.8V25h1.5v1.8h-1.5v4.5c0,0.3,0.1,0.6,0.2,0.7c0.1,0.1,0.4,0.2,0.7,0.2c0.3,0,0.5,0,0.7-0.1v1.8 c-0.5,0.1-1,0.2-1.5,0.2c-1.7,0-2.5-0.8-2.6-2.5v-4.8h-1.3V25h1.3v-2.2H53.3z"/>
</svg>

<svg id="icon-text-style-2" viewBox="0 0 77 56">
	<style type="text/css">
		.st0{fill:#1ba3fc;}
		.st1{fill:#111;}
	</style>
	<path class="st0" d="M67.3,53H9.7c-3.5,0-6.3-2.8-6.3-6.3V9.3C3.4,5.8,6.2,3,9.7,3h57.7c3.5,0,6.3,2.8,6.3,6.3v37.5 C73.6,50.2,70.8,53,67.3,53z"/>
	<path class="st1" d="M32,23.9h-3.7V34h-2.5V23.9h-3.7v-2H32V23.9z"/>
	<path class="st1" d="M36.7,34.1c-1.3,0-2.4-0.4-3.2-1.2c-0.8-0.8-1.2-1.9-1.2-3.2v-0.2c0-0.9,0.2-1.7,0.5-2.4 c0.3-0.7,0.8-1.3,1.5-1.6c0.6-0.4,1.4-0.6,2.2-0.6c1.2,0,2.2,0.4,2.9,1.2c0.7,0.8,1.1,1.9,1.1,3.3v1h-5.7c0.1,0.6,0.3,1.1,0.7,1.4 c0.4,0.4,0.9,0.5,1.5,0.5c0.9,0,1.6-0.3,2.2-1l1.2,1.3c-0.4,0.5-0.8,0.9-1.5,1.2S37.4,34.1,36.7,34.1z M36.4,26.7 c-0.5,0-0.9,0.2-1.2,0.5c-0.3,0.3-0.5,0.8-0.6,1.4H38v-0.2c0-0.5-0.2-0.9-0.4-1.2C37.3,26.9,36.9,26.7,36.4,26.7z"/>
	<path class="st1" d="M45.2,27.7l1.5-2.7h2.6l-2.6,4.4l2.7,4.6h-2.6l-1.6-2.8L43.6,34H41l2.7-4.6L41.1,25h2.6L45.2,27.7z"/>
	<path class="st1" d="M53.3,22.8V25h1.5v1.8h-1.5v4.5c0,0.3,0.1,0.6,0.2,0.7c0.1,0.1,0.4,0.2,0.7,0.2c0.3,0,0.5,0,0.7-0.1v1.8 c-0.5,0.1-1,0.2-1.5,0.2c-1.7,0-2.5-0.8-2.6-2.5v-4.8h-1.3V25h1.3v-2.2H53.3z"/>
</svg>

<svg id="icon-text-style-3" viewBox="0 0 77 56">
	<style type="text/css">
		.st0{fill:#65d744;}
		.st1{fill:#111;}
	</style>
	<path class="st0" d="M67.3,53H9.7c-3.5,0-6.3-2.8-6.3-6.3V9.3C3.4,5.8,6.2,3,9.7,3h57.7c3.5,0,6.3,2.8,6.3,6.3v37.5 C73.6,50.2,70.8,53,67.3,53z"/>
	<path class="st1" d="M32,23.9h-3.7V34h-2.5V23.9h-3.7v-2H32V23.9z"/>
	<path class="st1" d="M36.7,34.1c-1.3,0-2.4-0.4-3.2-1.2c-0.8-0.8-1.2-1.9-1.2-3.2v-0.2c0-0.9,0.2-1.7,0.5-2.4 c0.3-0.7,0.8-1.3,1.5-1.6c0.6-0.4,1.4-0.6,2.2-0.6c1.2,0,2.2,0.4,2.9,1.2c0.7,0.8,1.1,1.9,1.1,3.3v1h-5.7c0.1,0.6,0.3,1.1,0.7,1.4 c0.4,0.4,0.9,0.5,1.5,0.5c0.9,0,1.6-0.3,2.2-1l1.2,1.3c-0.4,0.5-0.8,0.9-1.5,1.2S37.4,34.1,36.7,34.1z M36.4,26.7 c-0.5,0-0.9,0.2-1.2,0.5c-0.3,0.3-0.5,0.8-0.6,1.4H38v-0.2c0-0.5-0.2-0.9-0.4-1.2C37.3,26.9,36.9,26.7,36.4,26.7z"/>
	<path class="st1" d="M45.2,27.7l1.5-2.7h2.6l-2.6,4.4l2.7,4.6h-2.6l-1.6-2.8L43.6,34H41l2.7-4.6L41.1,25h2.6L45.2,27.7z"/>
	<path class="st1" d="M53.3,22.8V25h1.5v1.8h-1.5v4.5c0,0.3,0.1,0.6,0.2,0.7c0.1,0.1,0.4,0.2,0.7,0.2c0.3,0,0.5,0,0.7-0.1v1.8 c-0.5,0.1-1,0.2-1.5,0.2c-1.7,0-2.5-0.8-2.6-2.5v-4.8h-1.3V25h1.3v-2.2H53.3z"/>
</svg>

<svg id="icon-text-style-4" viewBox="0 0 77 56">
	<style type="text/css">
		.st0{fill:#ea261f;}
		.st1{fill:#fff;}
	</style>
	<path class="st0" d="M67.3,53H9.7c-3.5,0-6.3-2.8-6.3-6.3V9.3C3.4,5.8,6.2,3,9.7,3h57.7c3.5,0,6.3,2.8,6.3,6.3v37.5 C73.6,50.2,70.8,53,67.3,53z"/>
	<path class="st1" d="M32,23.9h-3.7V34h-2.5V23.9h-3.7v-2H32V23.9z"/>
	<path class="st1" d="M36.7,34.1c-1.3,0-2.4-0.4-3.2-1.2c-0.8-0.8-1.2-1.9-1.2-3.2v-0.2c0-0.9,0.2-1.7,0.5-2.4 c0.3-0.7,0.8-1.3,1.5-1.6c0.6-0.4,1.4-0.6,2.2-0.6c1.2,0,2.2,0.4,2.9,1.2c0.7,0.8,1.1,1.9,1.1,3.3v1h-5.7c0.1,0.6,0.3,1.1,0.7,1.4 c0.4,0.4,0.9,0.5,1.5,0.5c0.9,0,1.6-0.3,2.2-1l1.2,1.3c-0.4,0.5-0.8,0.9-1.5,1.2S37.4,34.1,36.7,34.1z M36.4,26.7 c-0.5,0-0.9,0.2-1.2,0.5c-0.3,0.3-0.5,0.8-0.6,1.4H38v-0.2c0-0.5-0.2-0.9-0.4-1.2C37.3,26.9,36.9,26.7,36.4,26.7z"/>
	<path class="st1" d="M45.2,27.7l1.5-2.7h2.6l-2.6,4.4l2.7,4.6h-2.6l-1.6-2.8L43.6,34H41l2.7-4.6L41.1,25h2.6L45.2,27.7z"/>
	<path class="st1" d="M53.3,22.8V25h1.5v1.8h-1.5v4.5c0,0.3,0.1,0.6,0.2,0.7c0.1,0.1,0.4,0.2,0.7,0.2c0.3,0,0.5,0,0.7-0.1v1.8 c-0.5,0.1-1,0.2-1.5,0.2c-1.7,0-2.5-0.8-2.6-2.5v-4.8h-1.3V25h1.3v-2.2H53.3z"/>
</svg>

<svg id="icon-text-style-5" viewBox="0 0 77 56">
	<style type="text/css">
		.st0{fill:#fcad2a;}
		.st1{fill:#111;}
	</style>
	<path class="st0" d="M67.3,53H9.7c-3.5,0-6.3-2.8-6.3-6.3V9.3C3.4,5.8,6.2,3,9.7,3h57.7c3.5,0,6.3,2.8,6.3,6.3v37.5 C73.6,50.2,70.8,53,67.3,53z"/>
	<path class="st1" d="M32,23.9h-3.7V34h-2.5V23.9h-3.7v-2H32V23.9z"/>
	<path class="st1" d="M36.7,34.1c-1.3,0-2.4-0.4-3.2-1.2c-0.8-0.8-1.2-1.9-1.2-3.2v-0.2c0-0.9,0.2-1.7,0.5-2.4 c0.3-0.7,0.8-1.3,1.5-1.6c0.6-0.4,1.4-0.6,2.2-0.6c1.2,0,2.2,0.4,2.9,1.2c0.7,0.8,1.1,1.9,1.1,3.3v1h-5.7c0.1,0.6,0.3,1.1,0.7,1.4 c0.4,0.4,0.9,0.5,1.5,0.5c0.9,0,1.6-0.3,2.2-1l1.2,1.3c-0.4,0.5-0.8,0.9-1.5,1.2S37.4,34.1,36.7,34.1z M36.4,26.7 c-0.5,0-0.9,0.2-1.2,0.5c-0.3,0.3-0.5,0.8-0.6,1.4H38v-0.2c0-0.5-0.2-0.9-0.4-1.2C37.3,26.9,36.9,26.7,36.4,26.7z"/>
	<path class="st1" d="M45.2,27.7l1.5-2.7h2.6l-2.6,4.4l2.7,4.6h-2.6l-1.6-2.8L43.6,34H41l2.7-4.6L41.1,25h2.6L45.2,27.7z"/>
	<path class="st1" d="M53.3,22.8V25h1.5v1.8h-1.5v4.5c0,0.3,0.1,0.6,0.2,0.7c0.1,0.1,0.4,0.2,0.7,0.2c0.3,0,0.5,0,0.7-0.1v1.8 c-0.5,0.1-1,0.2-1.5,0.2c-1.7,0-2.5-0.8-2.6-2.5v-4.8h-1.3V25h1.3v-2.2H53.3z"/>
</svg>

<svg id="icon-text-style-6" viewBox="0 0 77 56">
	<style type="text/css">
		.st0{fill:#fc47a1;}
		.st1{fill:#fff;}
	</style>
	<path class="st0" d="M67.3,53H9.7c-3.5,0-6.3-2.8-6.3-6.3V9.3C3.4,5.8,6.2,3,9.7,3h57.7c3.5,0,6.3,2.8,6.3,6.3v37.5 C73.6,50.2,70.8,53,67.3,53z"/>
	<path class="st1" d="M32,23.9h-3.7V34h-2.5V23.9h-3.7v-2H32V23.9z"/>
	<path class="st1" d="M36.7,34.1c-1.3,0-2.4-0.4-3.2-1.2c-0.8-0.8-1.2-1.9-1.2-3.2v-0.2c0-0.9,0.2-1.7,0.5-2.4 c0.3-0.7,0.8-1.3,1.5-1.6c0.6-0.4,1.4-0.6,2.2-0.6c1.2,0,2.2,0.4,2.9,1.2c0.7,0.8,1.1,1.9,1.1,3.3v1h-5.7c0.1,0.6,0.3,1.1,0.7,1.4 c0.4,0.4,0.9,0.5,1.5,0.5c0.9,0,1.6-0.3,2.2-1l1.2,1.3c-0.4,0.5-0.8,0.9-1.5,1.2S37.4,34.1,36.7,34.1z M36.4,26.7 c-0.5,0-0.9,0.2-1.2,0.5c-0.3,0.3-0.5,0.8-0.6,1.4H38v-0.2c0-0.5-0.2-0.9-0.4-1.2C37.3,26.9,36.9,26.7,36.4,26.7z"/>
	<path class="st1" d="M45.2,27.7l1.5-2.7h2.6l-2.6,4.4l2.7,4.6h-2.6l-1.6-2.8L43.6,34H41l2.7-4.6L41.1,25h2.6L45.2,27.7z"/>
	<path class="st1" d="M53.3,22.8V25h1.5v1.8h-1.5v4.5c0,0.3,0.1,0.6,0.2,0.7c0.1,0.1,0.4,0.2,0.7,0.2c0.3,0,0.5,0,0.7-0.1v1.8 c-0.5,0.1-1,0.2-1.5,0.2c-1.7,0-2.5-0.8-2.6-2.5v-4.8h-1.3V25h1.3v-2.2H53.3z"/>
</svg>



<svg id="icon-line-style-1" viewBox="0 0 77 56">
	<style type="text/css">
		.st0{stroke:#222222;stroke-width:3;}
	</style>
	<line class="st0" x1="5" y1="28" x2="72" y2="28"/>
</svg>

<svg id="icon-line-style-2" viewBox="0 0 77 56">
	<style type="text/css">
		.st0{stroke:#1ba3fc;stroke-width:3;}
	</style>
	<line class="st0" x1="5" y1="28" x2="72" y2="28"/>
</svg>

<svg id="icon-line-style-3" viewBox="0 0 77 56">
	<style type="text/css">
		.st0{stroke:#65d744;stroke-width:3;}
	</style>
	<line class="st0" x1="5" y1="28" x2="72" y2="28"/>
</svg>

<svg id="icon-line-style-4" viewBox="0 0 77 56">
	<style type="text/css">
		.st0{stroke:#ea261f;stroke-width:3;}
	</style>
	<line class="st0" x1="5" y1="28" x2="72" y2="28"/>
</svg>

<svg id="icon-line-style-5" viewBox="0 0 77 56">
	<style type="text/css">
		.st0{stroke:#fcad2a;stroke-width:3;}
	</style>
	<line class="st0" x1="5" y1="28" x2="72" y2="28"/>
</svg>

<svg id="icon-line-style-6" viewBox="0 0 77 56">
	<style type="text/css">
		.st0{stroke:#fc47a1;stroke-width:3;}
	</style>
	<line class="st0" x1="5" y1="28" x2="72" y2="28"/>
</svg>



<svg id="icon-shape-style-1" viewBox="0 0 77 56">
	<style type="text/css">
		.st0{fill:#222222;}
	</style>
	<path class="st0" d="M67.3,53H9.7c-3.5,0-6.3-2.8-6.3-6.3V9.3C3.4,5.8,6.2,3,9.7,3h57.7c3.5,0,6.3,2.8,6.3,6.3v37.5C73.6,50.2,70.8,53,67.3,53z"/>
</svg>

<svg id="icon-shape-style-2" viewBox="0 0 77 56">
	<style type="text/css">
		.st0{fill:#1ba3fc;}
	</style>
	<path class="st0" d="M67.3,53H9.7c-3.5,0-6.3-2.8-6.3-6.3V9.3C3.4,5.8,6.2,3,9.7,3h57.7c3.5,0,6.3,2.8,6.3,6.3v37.5C73.6,50.2,70.8,53,67.3,53z"/>
</svg>

<svg id="icon-shape-style-3" viewBox="0 0 77 56">
	<style type="text/css">
		.st0{fill:#65d744;}
	</style>
	<path class="st0" d="M67.3,53H9.7c-3.5,0-6.3-2.8-6.3-6.3V9.3C3.4,5.8,6.2,3,9.7,3h57.7c3.5,0,6.3,2.8,6.3,6.3v37.5C73.6,50.2,70.8,53,67.3,53z"/>
</svg>

<svg id="icon-shape-style-4" viewBox="0 0 77 56">
	<style type="text/css">
		.st0{fill:#ea261f;}
	</style>
	<path class="st0" d="M67.3,53H9.7c-3.5,0-6.3-2.8-6.3-6.3V9.3C3.4,5.8,6.2,3,9.7,3h57.7c3.5,0,6.3,2.8,6.3,6.3v37.5C73.6,50.2,70.8,53,67.3,53z"/>
</svg>

<svg id="icon-shape-style-5" viewBox="0 0 77 56">
	<style type="text/css">
		.st0{fill:#fcad2a;}
	</style>
	<path class="st0" d="M67.3,53H9.7c-3.5,0-6.3-2.8-6.3-6.3V9.3C3.4,5.8,6.2,3,9.7,3h57.7c3.5,0,6.3,2.8,6.3,6.3v37.5C73.6,50.2,70.8,53,67.3,53z"/>
</svg>

<svg id="icon-shape-style-6" viewBox="0 0 77 56">
	<style type="text/css">
		.st0{fill:#fc47a1;}
	</style>
	<path class="st0" d="M67.3,53H9.7c-3.5,0-6.3-2.8-6.3-6.3V9.3C3.4,5.8,6.2,3,9.7,3h57.7c3.5,0,6.3,2.8,6.3,6.3v37.5C73.6,50.2,70.8,53,67.3,53z"/>
</svg>
